<svg width="24" height="24" viewBox="0 0 24 24" fill="none" xmlns="http://www.w3.org/2000/svg">
    <path
        d="M15.4376 2.03125V4.10181L11.1353 4.2005L9.97382 4.22668L9.39307 4.24011L9.10236 4.24683L8.75055 4.2616C7.79767 4.33 6.86005 4.61504 6.03815 5.08942C4.3878 6.03095 3.22445 7.73689 2.9632 9.59039C2.92813 9.82105 2.90938 10.0536 2.89941 10.2853L2.89673 10.631L2.90948 10.9218L2.96051 12.0833L3.06256 14.4062H4.78131L4.88336 12.0826L4.93439 10.9211L4.96057 10.3967C4.97604 10.2424 4.99576 10.0887 5.02704 9.9375C5.25976 8.72475 6.08146 7.66144 7.15533 7.11969C7.69055 6.8471 8.28043 6.70207 8.87408 6.68866L11.1353 6.737L15.4376 6.83569V8.90625L20.2501 5.46875L15.4376 2.03125ZM19.2188 9.59375L19.1168 11.9174L19.0657 13.0789L19.0396 13.6033C19.0241 13.7576 19.0044 13.9113 18.9731 14.0625C18.7404 15.2753 17.9187 16.3386 16.8448 16.8803C16.3096 17.1529 15.7197 17.2979 15.126 17.3113L12.8648 17.263L8.56256 17.1643V15.0938L3.75006 18.5312L8.56256 21.9688V19.8982L12.8648 19.7995L14.0263 19.7733L14.6071 19.7599L14.8978 19.7532L15.2496 19.7384C16.2024 19.67 17.1401 19.385 17.962 18.9106C19.6123 17.9691 20.7757 16.2631 21.0369 14.4096C21.072 14.179 21.0907 13.9464 21.1007 13.7147L21.1034 13.369L21.0906 13.0782L21.0396 11.9167L20.9376 9.59375H19.2188Z"
        fill="currentColor" />
</svg>