<svg width="19" height="16" viewBox="0 0 19 16" fill="currentColor" xmlns="http://www.w3.org/2000/svg">
    <path
        d="M6.77714 12.9231C6.36094 12.9231 5.96178 13.0852 5.66748 13.3737C5.37319 13.6622 5.20785 14.0535 5.20785 14.4615C5.20785 14.8696 5.37319 15.2609 5.66748 15.5494C5.96178 15.8379 6.36094 16 6.77714 16C7.19334 16 7.59249 15.8379 7.88679 15.5494C8.18108 15.2609 8.34642 14.8696 8.34642 14.4615C8.34642 14.0535 8.18108 13.6622 7.88679 13.3737C7.59249 13.0852 7.19334 12.9231 6.77714 12.9231ZM14.9374 12.9231C14.5212 12.9231 14.1221 13.0852 13.8278 13.3737C13.5335 13.6622 13.3681 14.0535 13.3681 14.4615C13.3681 14.8696 13.5335 15.2609 13.8278 15.5494C14.1221 15.8379 14.5212 16 14.9374 16C15.3536 16 15.7528 15.8379 16.0471 15.5494C16.3414 15.2609 16.5067 14.8696 16.5067 14.4615C16.5067 14.0535 16.3414 13.6622 16.0471 13.3737C15.7528 13.0852 15.3536 12.9231 14.9374 12.9231ZM4.1059 2.49077L3.79267 1.18615C3.62601 0.491077 2.99359 0 2.26544 0H0.5L0.813857 1.23077H2.26544C2.41107 1.23077 2.53756 1.32892 2.57083 1.468L4.79701 10.7437C4.93072 11.3018 5.4332 11.6923 6.01886 11.6923H15.9788C16.5908 11.6923 17.1109 11.2631 17.2154 10.6726L18.5 3.43169L4.1059 2.49077Z" />
</svg>