<svg width="24" height="24" viewBox="0 0 24 24" fill="none" xmlns="http://www.w3.org/2000/svg">
<path d="M10.1195 12.9628C10.9668 13.4518 11.3904 13.6963 11.8557 13.6967C12.3209 13.6971 12.7449 13.4534 13.5931 12.9658L18.9994 9.85813C19.2434 9.71785 19.3939 9.4578 19.3939 9.17628C19.3939 8.89476 19.2434 8.63472 18.9994 8.49443L13.5911 5.3856C12.7439 4.89859 12.3203 4.65509 11.8555 4.65527C11.3907 4.65545 10.9673 4.89929 10.1205 5.38695L5.47119 8.06432C5.43672 8.08416 5.4195 8.0941 5.40343 8.1035C3.81527 9.03321 2.83405 10.7306 2.82093 12.5708C2.8208 12.5894 2.8208 12.6093 2.8208 12.649C2.8208 12.6887 2.8208 12.7086 2.82093 12.7272C2.83402 14.5653 3.81305 16.2611 5.39839 17.1915C5.4144 17.2009 5.43163 17.2109 5.46601 17.2307L8.37833 18.9122C10.0753 19.892 10.9238 20.3819 11.8556 20.3822C12.7874 20.3825 13.6362 19.8932 15.3338 18.9146L18.4082 17.1423C19.2582 16.6522 19.6833 16.4073 19.9166 16.0033C20.15 15.5994 20.15 15.1088 20.15 14.1276V12.2322C20.15 11.96 20.0026 11.7091 19.7648 11.5767C19.5347 11.4485 19.2542 11.4504 19.0258 11.5817L12.7219 15.2054C12.2989 15.4485 12.0874 15.5701 11.8554 15.5702C11.6233 15.5702 11.4118 15.4488 10.9887 15.2059L6.72198 12.7568C6.50826 12.6341 6.40139 12.5727 6.31555 12.5617C6.11987 12.5364 5.93171 12.646 5.85717 12.8287C5.82449 12.9088 5.82513 13.0321 5.82646 13.2785C5.82744 13.4599 5.82792 13.5506 5.84487 13.6341C5.88286 13.8209 5.98115 13.9901 6.12469 14.1156C6.18878 14.1717 6.26733 14.217 6.42448 14.3077L10.9862 16.9406C11.4105 17.1854 11.6225 17.3078 11.8554 17.3079C12.0884 17.308 12.3005 17.1857 12.7248 16.9411L18.3162 13.718C18.4612 13.6344 18.5337 13.5926 18.588 13.624C18.6423 13.6555 18.6423 13.7391 18.6423 13.9064V14.7661C18.6423 15.0114 18.6423 15.1341 18.584 15.2351C18.5256 15.336 18.4194 15.3973 18.2068 15.5198L13.595 18.1782C12.746 18.6676 12.3215 18.9123 11.8555 18.9121C11.3896 18.9119 10.9653 18.6668 10.1167 18.1766L5.80196 15.6842C5.78826 15.6763 5.78141 15.6723 5.77502 15.6686C4.87033 15.1399 4.3121 14.1728 4.30686 13.125C4.30683 13.1176 4.30683 13.1097 4.30683 13.0938V12.3046C4.30683 11.7262 4.6149 11.1915 5.11535 10.9015C5.55756 10.6452 6.10303 10.6446 6.54571 10.9001L10.1195 12.9628Z" fill="currentColor"/>
</svg>
