<svg width="24" height="24" viewBox="0 0 24 24" fill="none" xmlns="http://www.w3.org/2000/svg">
    <path
        d="M18.159 6.42194L18.1613 6.4233C18.8722 6.85337 19.4504 7.47478 19.8098 8.1925C20.1719 8.91822 20.3189 9.71625 20.2198 10.5144C20.1111 11.3101 19.771 12.0341 19.335 12.7264C18.4394 14.1082 17.264 15.2338 15.9911 16.3014C14.7289 17.3417 13.413 18.2719 11.9971 19.125C10.2833 18.0865 8.69763 16.9419 7.22085 15.6214C6.48149 14.952 5.78996 14.2481 5.18527 13.4655C4.58154 12.6741 4.0798 11.8424 3.84854 10.8862C3.62974 9.95229 3.78153 8.95547 4.24388 8.09577L4.24439 8.09482C4.70316 7.23883 5.47807 6.5339 6.40746 6.13812L6.40746 6.13813L6.41156 6.13636C7.33586 5.73623 8.41513 5.65783 9.40009 5.89385L9.40511 5.89504C9.90216 6.01053 10.378 6.1993 10.8175 6.44442L10.8175 6.44447L10.8259 6.44904C11.0368 6.56313 11.2427 6.69855 11.4571 6.85203C11.4608 6.85489 11.467 6.85978 11.479 6.86943L11.4832 6.87277C11.4968 6.88375 11.5194 6.90194 11.5429 6.91981L11.9985 7.26641L12.453 6.91835C12.5717 6.82744 12.675 6.74962 12.7781 6.6803C13.0634 6.48935 13.3722 6.3237 13.6993 6.18332L13.6993 6.18334L13.7035 6.18151C14.023 6.04212 14.3584 5.93404 14.7022 5.86385L14.7118 5.86188L14.7215 5.85965C15.0396 5.78594 15.386 5.75981 15.7721 5.75006C16.6137 5.75643 17.4549 5.99258 18.159 6.42194Z"
        stroke-width="1.5" />
</svg>