<svg width="24" height="24" viewBox="0 0 24 24" fill="none" xmlns="http://www.w3.org/2000/svg">
    <path
        d="M12.1269 3.40625L1.53308 14.0007L9.31177 21.7794L19.9062 11.1856V8.62225C20.8654 8.35433 21.9039 7.81906 22.7764 6.78534L21.7244 5.89844C21.1736 6.55275 20.5313 6.94697 19.9062 7.18079C19.7876 7.22527 19.6703 7.26278 19.5538 7.29626C19.5288 7.30341 19.5041 7.30972 19.4792 7.31641C19.3893 7.3407 19.3004 7.36163 19.2127 7.38019C19.1788 7.38735 19.1448 7.39463 19.1113 7.401C19.0323 7.41606 18.9548 7.42895 18.8784 7.43994C18.8467 7.4445 18.8142 7.45013 18.783 7.45404C18.7588 7.45708 18.7364 7.45808 18.7125 7.46075C18.5939 7.47402 18.4833 7.48023 18.3741 7.4856C18.2324 7.49248 18.0981 7.49496 17.9767 7.49231C17.9394 7.49147 17.8976 7.49244 17.8625 7.49097C17.7114 7.48463 17.5753 7.47454 17.4725 7.46277C17.4571 7.53844 17.4347 7.61164 17.4073 7.68231C17.3966 7.71022 17.3815 7.73592 17.3691 7.76288C17.3497 7.80468 17.3313 7.84699 17.308 7.88641C17.291 7.91518 17.2706 7.94104 17.2516 7.96832C17.2287 8.0013 17.2067 8.03488 17.1811 8.06567C17.1504 8.1022 17.1162 8.13553 17.0817 8.1684C16.8342 8.4099 16.4991 8.5625 16.125 8.5625C15.3653 8.5625 14.75 7.94719 14.75 7.1875C14.75 6.42781 15.3653 5.8125 16.125 5.8125C16.1353 5.8125 16.1422 5.81586 16.1525 5.81586H16.1559C16.4549 5.82273 16.7267 5.92604 16.9501 6.09448C17.4142 6.13917 18.8234 6.21786 19.9062 5.62317V3.40625H12.1269ZM10.9996 8.93713L11.9691 9.90662L6.98474 14.891L6.01526 13.9215L10.9996 8.93713ZM11.6871 13.0621L12.6566 14.0316L9.39099 17.2972L8.42151 16.3278L11.6871 13.0621Z"
        fill="currentColor" />
</svg>