<svg width="24" height="24" viewBox="0 0 24 24" fill="none" xmlns="http://www.w3.org/2000/svg">
<path d="M18.2263 6.36771C17.0608 5.83986 15.83 5.46447 14.5654 5.25111C14.5539 5.24876 14.542 5.25017 14.5315 5.25512C14.521 5.26008 14.5124 5.2683 14.5071 5.27853C14.3393 5.5773 14.1871 5.88426 14.051 6.19822C12.6883 5.99386 11.3019 5.99386 9.93909 6.19822C9.80245 5.88324 9.64765 5.57617 9.47545 5.27853C9.47014 5.2683 9.46156 5.26008 9.45103 5.25512C9.4405 5.25017 9.42861 5.24876 9.41718 5.25111C8.15269 5.46511 6.92198 5.84048 5.75621 6.36771C5.75082 6.36913 5.74578 6.37164 5.74142 6.37507C5.73706 6.3785 5.73347 6.38279 5.73087 6.38765C3.40001 9.8147 2.76155 13.157 3.07318 16.4595C3.07589 16.4762 3.08494 16.4913 3.09851 16.5018C4.45529 17.4939 5.97331 18.2524 7.58796 18.745C7.59933 18.7484 7.61148 18.7483 7.62281 18.7448C7.63413 18.7412 7.64407 18.7343 7.6513 18.725C7.99895 18.2609 8.30658 17.769 8.57098 17.2545C8.57472 17.2476 8.57689 17.2399 8.57736 17.2321C8.57783 17.2242 8.57658 17.2164 8.5737 17.2091C8.57082 17.2017 8.56637 17.1951 8.56065 17.1896C8.55494 17.1841 8.54809 17.1799 8.54057 17.1773C8.05636 16.9934 7.58714 16.7734 7.13699 16.5193C7.12915 16.514 7.12274 16.5069 7.11831 16.4987C7.11387 16.4904 7.11156 16.4812 7.11156 16.4719C7.11156 16.4626 7.11387 16.4534 7.11831 16.4451C7.12274 16.4369 7.12915 16.4298 7.13699 16.4246L7.41568 16.2102C7.42421 16.2043 7.43439 16.2011 7.44482 16.2011C7.45524 16.2011 7.46542 16.2043 7.47395 16.2102C8.88833 16.863 10.4315 17.2015 11.9938 17.2015C13.5561 17.2015 15.0993 16.863 16.5137 16.2102C16.5223 16.2046 16.5324 16.2017 16.5428 16.2017C16.5531 16.2017 16.5633 16.2046 16.5719 16.2102C16.6631 16.285 16.7569 16.3573 16.8506 16.4271C16.8585 16.4323 16.8649 16.4394 16.8693 16.4476C16.8737 16.4559 16.876 16.4651 16.876 16.4744C16.876 16.4837 16.8737 16.4929 16.8693 16.5012C16.8649 16.5094 16.8585 16.5165 16.8506 16.5218C16.4023 16.7786 15.9327 16.9979 15.447 17.1773C15.4397 17.1805 15.433 17.1851 15.4275 17.1909C15.422 17.1967 15.4177 17.2035 15.4149 17.2109C15.412 17.2183 15.4107 17.2262 15.411 17.2341C15.4113 17.242 15.4132 17.2498 15.4166 17.257C15.6872 17.7681 15.9946 18.2595 16.3363 18.7275C16.3435 18.7368 16.3535 18.7437 16.3648 18.7473C16.3761 18.7508 16.3883 18.7509 16.3996 18.7475C18.0174 18.2568 19.5383 17.4982 20.8967 16.5043C20.9038 16.4997 20.9096 16.4934 20.9136 16.486C20.9176 16.4786 20.9196 16.4703 20.9195 16.4619C21.2938 12.8988 20.3464 9.32266 18.2517 6.39263C18.2497 6.38684 18.2463 6.38159 18.242 6.37727C18.2376 6.37294 18.2322 6.36967 18.2263 6.36771ZM9.01181 14.4506C8.12507 14.4506 7.39541 13.648 7.39541 12.666C7.39541 11.684 8.10987 10.879 9.01181 10.879C9.91376 10.879 10.6409 11.6865 10.6282 12.6635C10.6156 13.6405 9.91122 14.4506 9.01181 14.4506ZM14.9885 14.4506C14.1017 14.4506 13.3721 13.648 13.3721 12.666C13.3721 11.684 14.0865 10.879 14.9885 10.879C15.8904 10.879 16.6175 11.6865 16.6049 12.6635C16.5922 13.6405 15.8955 14.4506 14.9885 14.4506Z" fill="currentColor"/>
</svg>
