<svg width="24" height="24" viewBox="0 0 24 24" fill="none" xmlns="http://www.w3.org/2000/svg">
<path d="M20.7935 1.5127L16.1667 8.11768C14.1442 7.24295 12.4644 7.3252 12.4644 7.3252L10.002 9.55615L19.9915 15.584L20.7935 12.3665C20.7935 12.3665 20.1 10.8413 18.3889 9.45947L22.0774 2.2876L20.7935 1.5127ZM3.73682 4.58008C3.6201 4.58881 3.50106 4.62749 3.39185 4.70239C3.12447 4.88577 2.80055 5.89012 3.27905 5.96362C3.75755 6.03712 4.32894 5.63349 4.37769 5.15649C4.41425 4.79874 4.08696 4.55387 3.73682 4.58008ZM6.22119 5.66113C5.78147 5.70863 5.36281 6.07926 5.30933 6.34668C5.2482 6.6523 5.43178 7.55718 6.12891 7.75293C6.82603 7.94868 7.36914 7.32199 7.43701 6.78687C7.49589 6.32224 6.87928 5.71924 6.41016 5.66187C6.34748 5.65422 6.28401 5.65435 6.22119 5.66113ZM3.82397 8.32129C3.19158 8.32803 2.6523 8.65762 2.32324 9.06543C1.21437 10.4391 2.6661 11.1077 3.97485 11.144C5.16023 11.1774 6.16333 9.46094 5.03833 8.71094C4.61646 8.42969 4.20341 8.31725 3.82397 8.32129ZM9.01465 10.3164C7.7659 11.4002 4.335 14.179 0.75 15.3752C1.17375 15.8702 1.61607 16.3355 2.06982 16.7705C5.08857 16.8793 7.9541 15.1086 7.9541 15.1086L8.34741 15.3562C8.34741 15.3562 6.87735 17.1342 3.41235 17.9592C3.87735 18.3342 4.34968 18.6862 4.82593 19.0125C5.62093 18.9225 7.22974 18.4877 7.69849 18.094L8.14893 18.2742C8.14893 18.2742 7.13965 19.3164 5.82715 19.6614C6.5809 20.1226 7.33465 20.5241 8.07715 20.8728C8.94715 20.7528 12.8809 20.0815 14.7634 17.689L15.3896 17.9739C15.3896 17.9739 13.7098 20.6139 10.7285 21.9414C12.2698 22.4627 13.6313 22.7515 14.625 22.8752C18.4575 20.959 19.5973 17.4938 19.8523 16.5076L9.01465 10.3164Z" fill="currentColor"/>
</svg>
