<svg width="11" height="31" viewBox="0 0 11 31" fill="none" xmlns="http://www.w3.org/2000/svg">
<g clip-path="url(#clip0_243_5687)">
<path d="M-9.53674e-06 11.58V9.05004L5.36999 14.42L10.74 9.05004V11.58L6.62999 15.68L6.63999 15.69L5.36999 16.95L4.09999 15.69L4.10999 15.68L-9.53674e-06 11.58Z" fill="currentColor"/>
<path d="M-9.53674e-06 2.53003V2.47955e-05L5.36999 5.37002L10.74 2.47955e-05V2.53003L5.36999 7.90002L-9.53674e-06 2.53003Z" fill="currentColor"/>
<path d="M-9.53674e-06 25.28V22.76L5.36999 28.13L10.74 22.76V25.28L6.62999 29.39L6.63999 29.4L5.36999 30.66L4.09999 29.4L4.10999 29.39L-9.53674e-06 25.28Z" fill="currentColor"/>
<path d="M-9.53674e-06 16.24V13.7L5.36999 19.07L10.74 13.7V16.24L5.36999 21.61L-9.53674e-06 16.24Z" fill="currentColor"/>
</g>
<defs>
<clipPath id="clip0_243_5687">
<rect width="10.74" height="30.66" fill="white" transform="translate(10.74 30.66) rotate(-180)"/>
</clipPath>
</defs>
</svg>
