<svg width="24" height="24" viewBox="0 0 24 24" fill="none" xmlns="http://www.w3.org/2000/svg">
<path d="M16.875 4.875C16.875 4.875 16.125 7.875 14.25 7.875C10.125 7.875 11.625 1.125 11.625 1.125C11.625 1.125 7.875 3.375 6.75 9.375C5.25 8.625 4.875 6.375 4.875 6.375C4.875 6.375 2.625 9 2.625 13.125C2.625 21 10.125 21.75 10.125 21.75C10.125 21.75 8.25 19.5 8.25 16.875C8.25 12.75 10.011 10.875 10.011 10.875C10.011 10.875 10.386 15 12.75 15C14.25 15 15 13.875 15 13.875C15 13.875 16.5 15.375 16.5 18C16.5 20.3805 14.625 21.75 14.625 21.75C18.5542 20.9603 21.375 17.3288 21.375 13.1768C21.375 8.25 16.875 4.875 16.875 4.875Z" fill="white"/>
</svg>
