<svg width="24" height="24" viewBox="0 0 24 24" fill="none" xmlns="http://www.w3.org/2000/svg">
<path fill-rule="evenodd" clip-rule="evenodd" d="M16.2883 19.3344C16.5298 19.5054 16.841 19.5481 17.1185 19.4431C17.396 19.3374 17.6 19.1004 17.6615 18.8131C18.3133 15.7501 19.8943 7.99736 20.4875 5.21111C20.5325 5.00111 20.4575 4.78286 20.2925 4.64261C20.1275 4.50236 19.8988 4.46186 19.6948 4.53761C16.55 5.70161 6.8653 9.33536 2.9068 10.8001C2.65555 10.8931 2.49205 11.1346 2.5003 11.3994C2.5093 11.6649 2.6878 11.8951 2.94505 11.9724C4.7203 12.5034 7.05055 13.2421 7.05055 13.2421C7.05055 13.2421 8.13955 16.5309 8.7073 18.2034C8.77855 18.4134 8.9428 18.5784 9.15955 18.6354C9.37555 18.6916 9.60655 18.6324 9.7678 18.4801C10.6798 17.6191 12.0898 16.2879 12.0898 16.2879C12.0898 16.2879 14.7688 18.2521 16.2883 19.3344ZM8.0308 12.8266L9.29005 16.9801L9.5698 14.3499C9.5698 14.3499 14.435 9.96161 17.2085 7.46036C17.2895 7.38686 17.3008 7.26386 17.2333 7.17761C17.1665 7.09136 17.0435 7.07111 16.9513 7.12961C13.7368 9.18236 8.0308 12.8266 8.0308 12.8266Z" fill="currentColor"/>
</svg>
