<svg width="24" height="24" viewBox="0 0 24 24" fill="none" xmlns="http://www.w3.org/2000/svg">
    <path fill-rule="evenodd" clip-rule="evenodd"
        d="M2 12C2 6.4775 6.4775 2 12 2C17.5225 2 22 6.4775 22 12C22 17.5225 17.5225 22 12 22C6.4775 22 2 17.5225 2 12ZM14.042 7.21565V5.96665L16.9319 8.04022L14.042 10.1138V8.86478L11.4584 8.80525L10.1005 8.77609C9.74403 8.78418 9.3898 8.87166 9.06839 9.03609C8.42352 9.36289 7.93007 10.0043 7.79032 10.7358C7.77154 10.8271 7.7597 10.9198 7.75041 11.0129L7.73468 11.3292L7.70404 12.0298L7.64276 13.4315H6.61063L6.54935 12.0302L6.51871 11.3296L6.51105 11.1542L6.51266 10.9456C6.51864 10.8059 6.5299 10.6656 6.55096 10.5265C6.70784 9.4084 7.40645 8.37934 8.39751 7.8114C8.89107 7.52524 9.45413 7.3533 10.0263 7.31204L10.2376 7.30313L10.4122 7.29908L10.7609 7.29098L11.4584 7.27519L14.042 7.21565ZM16.2514 11.9302L16.3127 10.5285H17.3448L17.4061 11.9298L17.4367 12.6304L17.4444 12.8058L17.4428 13.0143C17.4368 13.1541 17.4255 13.2944 17.4045 13.4335C17.2476 14.5516 16.549 15.5806 15.5579 16.1486C15.0644 16.4347 14.5013 16.6067 13.9291 16.6479L13.7178 16.6568L13.5432 16.6609L13.1945 16.669L12.497 16.6848L9.91345 16.7443V17.9933L7.02348 15.9198L9.91345 13.8462V15.0952L12.497 15.1547L13.8549 15.1839C14.2114 15.1758 14.5656 15.0883 14.887 14.9239C15.5319 14.5971 16.0253 13.9557 16.1651 13.2241C16.1839 13.1329 16.1957 13.0402 16.205 12.9471L16.2207 12.6308L16.2514 11.9302Z"
        fill="currentColor" />
</svg>