<svg width="19" height="18" viewBox="0 0 19 18" fill="none" xmlns="http://www.w3.org/2000/svg">
    <path d="M8.36688 2.30481C8.32801 2.30434 8.30646 2.30536 8.30646 2.30536C7.79036 5.35018 6.45752 5.95742 4.63867 8.76148L5.59558 13.741C5.59558 13.741 6.80462 14.5324 8.02521 14.6425L8.02246 14.6441C8.02246 14.6441 10.3444 14.9056 11.7507 14.9056C11.7537 14.9056 11.757 14.905 11.76 14.905C11.7615 14.9051 11.7662 14.9055 11.7677 14.9056C11.7728 14.9058 11.778 14.9034 11.7831 14.9034C12.3772 14.8978 13.0475 14.7412 13.4382 14.6243C13.7487 14.5315 14.2819 14.486 14.2819 13.64C14.2819 12.794 13.4382 12.6556 13.4382 12.6556C14.0007 12.6556 14.5632 12.3743 14.5632 11.6712C14.5632 10.9681 14.103 10.6868 13.7194 10.6868C14.2819 10.6868 14.8444 10.4056 14.8444 9.70246C14.8444 8.99933 14.3843 8.71808 14.0007 8.71808H13.4382C14.0007 8.71808 14.5632 8.43683 14.5632 7.73371C14.5632 7.03058 14.0007 6.74933 13.4382 6.74933H13.1569H12.0319H9.42487C9.42487 6.74933 10.0659 4.8249 9.92584 3.78962C9.73906 2.4078 8.63897 2.30816 8.36688 2.30481Z"
          fill="currentColor"/>
</svg>
