<svg width="24" height="24" viewBox="0 0 24 24" fill="white" xmlns="http://www.w3.org/2000/svg">
    <path
        d="M11.2727 4C7.2 4 4 7.20001 4 11.2727C4 15.3455 7.2 18.5455 11.2727 18.5455C12.7273 18.5455 14.183 18.108 15.3466 17.3807L17.9631 20L20 17.9631L17.3807 15.3466C18.1079 14.183 18.5454 12.7273 18.5454 11.2727C18.5454 7.20001 15.3455 4 11.2727 4ZM11.2727 6.90909C13.7455 6.90909 15.6364 8.8 15.6364 11.2727C15.6364 13.7455 13.7455 15.6364 11.2727 15.6364C8.8 15.6364 6.90909 13.7455 6.90909 11.2727C6.90909 8.8 8.8 6.90909 11.2727 6.90909Z" />
</svg>