<svg width="24" height="24" viewBox="0 0 24 24" fill="none" xmlns="http://www.w3.org/2000/svg">
<path d="M9.24678 4.58875C8.65553 5.52375 8.18803 6.76469 7.89241 8.21875H9.30522C9.87584 5.67844 10.9793 4.09375 12.0002 4.09375C13.0212 4.09375 14.1246 5.67844 14.6952 8.21875H16.108C15.8124 6.76469 15.3449 5.52375 14.7537 4.58875C16.548 5.25562 18.033 6.55844 18.9405 8.21875H20.4737C19.0265 4.98062 15.7712 2.71875 12.0002 2.71875C8.22928 2.71875 4.97397 4.98062 3.53022 8.21875H5.05991C5.96741 6.55844 7.45241 5.25562 9.24678 4.58875ZM14.7537 19.4113C15.3449 18.4763 15.8124 17.2353 16.108 15.7812H14.6952C14.1246 18.3216 13.0212 19.9062 12.0002 19.9062C10.9793 19.9062 9.87584 18.3216 9.30522 15.7812H7.89241C8.18803 17.2353 8.65553 18.4763 9.24678 19.4113C7.45241 18.7444 5.96741 17.4416 5.05991 15.7812H3.53022C4.97397 19.0194 8.22928 21.2812 12.0002 21.2812C15.7712 21.2812 19.0265 19.0194 20.4737 15.7812H18.9405C18.033 17.4416 16.548 18.7444 14.7537 19.4113ZM8.23031 9.27131H8.40528L8.36403 9.44112L7.10831 14.6232L7.08287 14.7283H6.97459H5.79106H5.68278L5.65734 14.6232L5.06059 12.1423L4.45216 14.6238L4.42637 14.7287H4.31844H3.13491H3.02628L3.00119 14.6228L1.76678 9.44078L1.72656 9.27131H1.9005H2.90391H3.01459L3.03831 9.37959L3.74884 12.6353L4.46556 9.37925L4.48928 9.27131H4.59997H5.53119H5.64153L5.66559 9.37891L6.3885 12.6349L7.09319 9.37959L7.11656 9.27131H7.22759H8.23031ZM14.1614 9.27131H14.0503L14.027 9.37959L13.3223 12.6353L12.599 9.37891L12.575 9.27131H12.4646H11.5337H11.4234L11.3997 9.37925L10.683 12.6353L9.97209 9.37959L9.94837 9.27131H9.83803H8.83497H8.66103L8.70125 9.44078L9.93531 14.6228L9.96041 14.7283H10.069H11.2526H11.3605L11.3863 14.6235L11.9951 12.142L12.5915 14.6228L12.6169 14.728H12.7252H13.9087H14.017L14.0424 14.6228L15.2982 9.44078L15.3394 9.27097H15.1644H14.1614V9.27131ZM22.0989 9.27131H21.0958H20.9848L20.9614 9.37959L20.2568 12.6353L19.5335 9.37891L19.5094 9.27131H19.3991H18.4682H18.3575L18.3338 9.37925L17.6171 12.6353L16.9062 9.37959L16.8825 9.27131H16.7718H15.7688H15.5948L15.635 9.44078L16.8691 14.6228L16.8942 14.7283H17.0028H18.1863H18.2943L18.3201 14.6235L18.9288 12.142L19.5252 14.6228L19.5507 14.728H19.659H20.8425H20.9508L20.9762 14.6228L22.2319 9.44078L22.2732 9.27097H22.0989V9.27131Z" fill="currentColor"/>
</svg>
