<svg width="24" height="24" viewBox="0 0 24 24" fill="none" xmlns="http://www.w3.org/2000/svg">
<path fill-rule="evenodd" clip-rule="evenodd" d="M12.0244 6.56097C12.0244 3.53033 14.4816 1.07317 17.5122 1.07317C20.5428 1.07317 23 3.53033 23 6.56097C23 9.59161 20.5428 12.0488 17.5122 12.0488C14.4816 12.0488 12.0244 9.59161 12.0244 6.56097ZM18.1982 7.24695H20.2561V5.875H18.1982H16.8262H14.7683V7.24695H16.8262H18.1982ZM4.4577 7.09962L10.9972 7.5271C11.4646 10.7061 14.2034 13.1463 17.5122 13.1463C18.1742 13.1463 18.8134 13.0487 19.4161 12.8669L18.8462 16.0797C18.7314 16.7278 18.1606 17.1989 17.4889 17.1989H6.55728C5.91449 17.1989 5.36298 16.7703 5.21623 16.1577L2.77286 5.97707C2.73634 5.82442 2.59752 5.71669 2.43768 5.71669H0.844477L0.5 4.36585H2.43768C3.23687 4.36585 3.93099 4.90484 4.11391 5.66772L4.4577 7.09962ZM7.38954 18.5497C6.93273 18.5497 6.49464 18.7276 6.17163 19.0443C5.84862 19.3609 5.66715 19.7904 5.66715 20.2383C5.66715 20.6861 5.84862 21.1156 6.17163 21.4323C6.49464 21.7489 6.93273 21.9268 7.38954 21.9268C7.84634 21.9268 8.28444 21.7489 8.60745 21.4323C8.93046 21.1156 9.11192 20.6861 9.11192 20.2383C9.11192 19.7904 8.93046 19.3609 8.60745 19.0443C8.28444 18.7276 7.84634 18.5497 7.38954 18.5497ZM16.3459 18.5497C15.8891 18.5497 15.451 18.7276 15.128 19.0443C14.805 19.3609 14.6236 19.7904 14.6236 20.2383C14.6236 20.6861 14.805 21.1156 15.128 21.4323C15.451 21.7489 15.8891 21.9268 16.3459 21.9268C16.8027 21.9268 17.2408 21.7489 17.5638 21.4323C17.8869 21.1156 18.0683 20.6861 18.0683 20.2383C18.0683 19.7904 17.8869 19.3609 17.5638 19.0443C17.2408 18.7276 16.8027 18.5497 16.3459 18.5497Z" fill="white"/>
</svg>
