<svg width="24" height="24" viewBox="0 0 24 24" fill="none" xmlns="http://www.w3.org/2000/svg">
<path d="M12 2.25C17.3759 2.25 21.75 6.62406 21.75 12C21.75 17.3759 17.3759 21.75 12 21.75C6.62406 21.75 2.25 17.3759 2.25 12C2.25 11.7644 2.25872 11.5311 2.2749 11.3005L3.77124 11.4053C3.75742 11.6022 3.75 11.8006 3.75 12C3.75 16.5653 7.43469 20.25 12 20.25C16.5653 20.25 20.25 16.5653 20.25 12C20.25 7.43469 16.5653 3.75 12 3.75C9.93707 3.75 8.0583 4.50458 6.61304 5.75244L8.08154 7.19165L3.46582 8.00757L4.19092 3.3772L5.54004 4.69995C7.26078 3.17722 9.52566 2.25 12 2.25Z" fill="white"/>
<path d="M16.2 7.49194L15.6697 6.96167L11.6304 10.5762C11.4792 10.5261 11.3209 10.5003 11.1616 10.5C10.7638 10.5 10.3823 10.658 10.101 10.9393C9.81966 11.2206 9.66162 11.6022 9.66162 12C9.66162 12.3978 9.81966 12.7794 10.101 13.0607C10.3823 13.342 10.7638 13.5 11.1616 13.5C11.2523 13.4994 11.3428 13.4906 11.4319 13.4736L14.4678 15.9895L15.1519 15.3062L12.6353 12.2688C12.6801 12.0228 12.6627 11.7695 12.5847 11.532L16.2 7.49194Z" fill="white"/>
</svg>
