<svg width="18" height="18" viewBox="0 0 18 18" fill="none" xmlns="http://www.w3.org/2000/svg">
    <path
            d="M20.0055 17.069V20.0278H22V22H10.0332V20.0278H12.0277V17.069H20.0055ZM2.75139 17.1632C2.26373 16.6811 2.75139 17.1632 2.00005 16.3638L8.85822 9.58203L7.62507 8.36239L6.9172 9.06249C6.817 8.9634 4.66633 6.83659 4.80307 6.9718L11.8536 0C11.9538 0.0990862 14.1043 2.22579 13.9676 2.09057L13.2659 2.78441L17.4994 6.97036L18.2058 6.2717C18.7965 6.85578 20.4248 8.46592 20.3201 8.36239L13.2696 15.3342C13.1694 15.2351 11.0187 13.1084 11.1554 13.2436L11.8581 12.5488L10.6238 11.3282L3.7659 18.1097C3.318 17.7235 3.23905 17.6455 2.75139 17.1632Z"
            fill="currentColor"/>
</svg>