<svg width="24" height="24" viewBox="0 0 24 24" fill="none" xmlns="http://www.w3.org/2000/svg">
    <path d="M4.125 2.25V21.75H19.875V9.05786C19.875 8.29399 19.6053 7.55435 19.114 6.96973L15.791 3.01611C15.383 2.53049 14.7812 2.25 14.1467 2.25H4.125ZM5.625 3.75H13.7607C14.9945 3.75 15.375 4.2619 15.375 4.71753C15.375 5.3869 14.625 6.375 14.625 6.375C18.2854 8.1075 18.3062 8.10696 18.3062 9.44458C18.3062 11.3196 18.375 20.25 18.375 20.25H5.625V3.75ZM8.25 9.75V11.25H15.75V9.75H8.25ZM8.25 12.75V14.25H15.75V12.75H8.25ZM8.25 15.75V17.25H13.125V15.75H8.25Z"
          fill="currentColor"/>
</svg>
