<svg width="24" height="24" viewBox="0 0 24 24" fill="none" xmlns="http://www.w3.org/2000/svg">
<path d="M6.58285 12.6923C6.2707 12.6923 5.97134 12.8139 5.75061 13.0303C5.52989 13.2466 5.40589 13.5401 5.40589 13.8462C5.40589 14.1522 5.52989 14.4457 5.75061 14.662C5.97134 14.8784 6.2707 15 6.58285 15C6.895 15 7.19437 14.8784 7.41509 14.662C7.63581 14.4457 7.75981 14.1522 7.75981 13.8462C7.75981 13.5401 7.63581 13.2466 7.41509 13.0303C7.19437 12.8139 6.895 12.6923 6.58285 12.6923ZM12.7031 12.6923C12.3909 12.6923 12.0915 12.8139 11.8708 13.0303C11.6501 13.2466 11.5261 13.5401 11.5261 13.8462C11.5261 14.1522 11.6501 14.4457 11.8708 14.662C12.0915 14.8784 12.3909 15 12.7031 15C13.0152 15 13.3146 14.8784 13.5353 14.662C13.756 14.4457 13.88 14.1522 13.88 13.8462C13.88 13.5401 13.756 13.2466 13.5353 13.0303C13.3146 12.8139 13.0152 12.6923 12.7031 12.6923ZM4.57943 4.86808L4.3445 3.88962C4.21951 3.36831 3.74519 3 3.19908 3H1.875L2.11039 3.92308H3.19908C3.30831 3.92308 3.40317 3.99669 3.42812 4.101L5.09776 11.0578C5.19804 11.4764 5.5749 11.7692 6.01414 11.7692H13.4841C13.9431 11.7692 14.3332 11.4473 14.4115 11.0045L15.375 5.57377L4.57943 4.86808Z" fill="currentColor"/>
</svg>
