<svg width="24" height="24" viewBox="0 0 24 24" fill="none" xmlns="http://www.w3.org/2000/svg">
    <path
        d="M10.3875 2.38906C10.1756 2.39237 9.97362 2.47962 9.82598 2.63165C9.67834 2.78369 9.59705 2.98809 9.59995 3.2H6.98276C6.84257 2.95718 6.64104 2.75547 6.39835 2.61506C6.15566 2.47466 5.88033 2.40049 5.59995 2.4C5.1756 2.4 4.76864 2.56857 4.46858 2.86863C4.16852 3.16868 3.99995 3.57565 3.99995 4C3.99995 4.42434 4.16852 4.83131 4.46858 5.13137C4.76864 5.43143 5.1756 5.6 5.59995 5.6C5.8806 5.59977 6.15624 5.52574 6.39923 5.38532C6.64222 5.2449 6.844 5.04304 6.98433 4.8H9.59995V7.30468C9.11453 7.43054 8.66548 7.66871 8.28901 8H3.19995V12.8H8.28901C8.87211 13.3142 9.62249 13.5986 10.4 13.6C11.1774 13.5986 11.9278 13.3142 12.5109 12.8H14.4C15.284 12.8 16 13.516 16 14.4V16.8H20.8V14.4C20.8 10.8656 17.9344 8 14.4 8H12.5109C12.1343 7.66927 11.6852 7.43164 11.2 7.30625V4.8H13.8171C13.9573 5.04281 14.1589 5.24453 14.4016 5.38493C14.6442 5.52534 14.9196 5.5995 15.2 5.6C15.6243 5.6 16.0313 5.43143 16.3313 5.13137C16.6314 4.83131 16.8 4.42434 16.8 4C16.8 3.57565 16.6314 3.16868 16.3313 2.86863C16.0313 2.56857 15.6243 2.4 15.2 2.4C14.9193 2.40022 14.6437 2.47425 14.4007 2.61467C14.1577 2.75509 13.9559 2.95695 13.8156 3.2H11.2C11.2014 3.09297 11.1814 2.98673 11.1411 2.88758C11.1007 2.78842 11.0409 2.69837 10.9651 2.62276C10.8894 2.54714 10.7992 2.48749 10.7 2.44735C10.6008 2.40721 10.4945 2.38739 10.3875 2.38906ZM18.4 18.4C18.4 18.4 16.8 20.716 16.8 21.6C16.8 22.484 17.516 23.2 18.4 23.2C19.284 23.2 20 22.484 20 21.6C20 20.716 18.4 18.4 18.4 18.4Z"
        fill="currentColor" />
</svg>