<svg width="20" height="20" viewBox="0 0 20 20" fill="none" xmlns="http://www.w3.org/2000/svg">
<path fill-rule="evenodd" clip-rule="evenodd" d="M10 0.203125C4.61848 0.203125 0.259705 4.56191 0.259705 9.94342C0.259705 14.2535 3.04786 17.8939 6.91963 19.1845C7.40664 19.2697 7.58927 18.9775 7.58927 18.7219C7.58927 18.4905 7.5771 17.7235 7.5771 16.9077C5.12985 17.3582 4.49673 16.3111 4.30193 15.7632C4.19235 15.4832 3.71751 14.6188 3.30355 14.3874C2.96264 14.2048 2.47562 13.7543 3.29137 13.7421C4.05842 13.73 4.60631 14.4483 4.78894 14.7405C5.66557 16.2137 7.06573 15.7998 7.6258 15.5441C7.71103 14.911 7.96671 14.4848 8.24674 14.2413C6.07953 13.9978 3.81491 13.1577 3.81491 9.43205C3.81491 8.37279 4.19235 7.49617 4.81329 6.81435C4.71589 6.57084 4.37498 5.57246 4.91069 4.23317C4.91069 4.23317 5.72644 3.97749 7.58927 5.23155C8.3685 5.01239 9.19642 4.90282 10.0243 4.90282C10.8523 4.90282 11.6802 5.01239 12.4594 5.23155C14.3223 3.96531 15.138 4.23317 15.138 4.23317C15.6737 5.57246 15.3328 6.57084 15.2354 6.81435C15.8563 7.49617 16.2338 8.36062 16.2338 9.43205C16.2338 13.1699 13.957 13.9978 11.7898 14.2413C12.1429 14.5457 12.4472 15.1301 12.4472 16.0433C12.4472 17.346 12.4351 18.3931 12.4351 18.7219C12.4351 18.9775 12.6177 19.2819 13.1047 19.1845C16.9521 17.8939 19.7403 14.2413 19.7403 9.94342C19.7403 4.56191 15.3815 0.203125 10 0.203125Z" fill="currentColor"/>
</svg>
