<svg width="24" height="24" viewBox="0 0 24 24" fill="none" xmlns="http://www.w3.org/2000/svg">
<path d="M2.25 2.25V3V7.5H7.5V2.25H2.25ZM9.375 2.25V3V7.5H14.625V2.25H9.375ZM16.5 2.25V3V7.5H21.75V2.25H16.5ZM3.75 3.75H6V6H3.75V3.75ZM10.875 3.75H13.125V6H10.875V3.75ZM18 3.75H20.25V6H18V3.75ZM2.25 9.375V10.125V14.625H7.5V9.375H2.25ZM9.375 9.375V10.125V14.625H14.625V9.375H9.375ZM16.5 9.375V10.125V14.625H21.75V9.375H16.5ZM3.75 10.875H6V13.125H3.75V10.875ZM10.875 10.875H13.125V13.125H10.875V10.875ZM18 10.875H20.25V13.125H18V10.875ZM2.25 16.5V17.25V21.75H7.5V16.5H2.25ZM9.375 16.5V17.25V21.75H14.625V16.5H9.375ZM16.5 16.5V17.25V21.75H21.75V16.5H16.5ZM3.75 18H6V20.25H3.75V18ZM10.875 18H13.125V20.25H10.875V18ZM18 18H20.25V20.25H18V18Z" fill="currentColor"/>
</svg>
