<svg width="20" height="20" viewBox="0 0 20 20" fill="none" xmlns="http://www.w3.org/2000/svg">
    <g id="Icons" clip-path="url(#clip0_7246_6887)">
        <path id="Subtract" fill-rule="evenodd" clip-rule="evenodd"
              d="M10.2559 17.028H8.15566C6.78323 15.5131 5.88908 13.7311 5.10683 12.1722C4.57385 11.11 4.09282 10.1513 3.54785 9.45122C3.54785 9.45122 4.00879 8.70538 5.05228 9.0882C5.49221 9.24964 5.70279 9.54996 5.9457 9.89642C6.20275 10.263 6.49602 10.6813 7.13561 11.0413C7.13561 11.0413 7.22858 4.67075 7.23587 4.32413C7.24369 3.95955 7.57806 3.76788 7.82441 3.76762C8.07077 3.76736 8.45436 3.87674 8.50254 4.29913C8.52041 4.4558 8.56873 5.05691 8.62552 5.76343C8.72185 6.9618 8.84256 8.46342 8.8804 8.61398C8.95436 8.90773 9.23014 8.85044 9.24629 8.59731C9.2512 8.51979 9.27983 7.38906 9.31019 6.18928C9.3442 4.84599 9.38039 3.41612 9.38796 3.2809C9.40723 2.93663 9.73926 2.71528 10.1109 2.72413C10.4825 2.73273 10.7702 2.93169 10.7843 3.36658C10.7919 3.60706 10.7875 5.10889 10.7835 6.45107C10.7803 7.53906 10.7774 8.52215 10.7814 8.6434C10.7921 8.96528 11.2429 9.02465 11.3023 8.65564C11.3416 8.41137 11.671 3.98351 11.6799 3.77075C11.6939 3.42986 12.1072 3.19913 12.4343 3.25174C12.7614 3.30434 13.0648 3.54965 13.0523 3.90929C13.0449 4.12123 12.8946 7.28705 12.8256 8.69002C10.7081 9.42259 9.1873 11.4342 9.1873 13.8007C9.1873 15.0104 9.58462 16.1273 10.2559 17.028ZM13.4205 8.52191C13.4768 8.12917 13.5408 7.66658 13.5994 7.24317C13.6863 6.61478 13.7613 6.07269 13.7814 5.97335C13.8406 5.68195 14.1304 5.51424 14.4515 5.59184C14.7726 5.66945 14.9176 5.87101 14.9124 6.16788C14.9105 6.27419 14.8304 7.20049 14.724 8.39577C14.6807 8.39475 14.6373 8.39423 14.5938 8.39423C14.1909 8.39423 13.7983 8.43831 13.4205 8.52191Z"
              fill="currentColor"/>
        <path id="Vector"
              d="M17.8275 10.5672C16.0416 8.78139 13.1459 8.78139 11.36 10.5672C9.57421 12.353 9.57421 15.2488 11.36 17.0347C13.1459 18.8205 16.0416 18.8205 17.8275 17.0347C19.6133 15.2488 19.6133 12.353 17.8275 10.5672ZM15.8064 15.822L14.5938 14.6094L13.3811 15.822L12.5727 15.0136L13.7853 13.8009L12.5727 12.5883L13.3811 11.7799L14.5938 12.9925L15.8064 11.7799L16.6148 12.5883L15.4022 13.8009L16.6148 15.0136L15.8064 15.822Z"
              fill="currentColor"/>
    </g>
    <defs>
        <clipPath id="clip0_7246_6887">
            <rect width="20" height="20" fill="currentColor"/>
        </clipPath>
    </defs>
</svg>
