<svg width="24" height="24" viewBox="0 0 24 24" fill="white" xmlns="http://www.w3.org/2000/svg">
    <path
        d="M15.125 20.4338H9.78658C7.01751 17.3772 5.87095 13.4147 4.2572 11.3416C4.2572 11.3416 4.81033 10.4466 6.06251 10.906C7.14908 11.3047 7.0697 12.4094 8.56251 13.2497C8.56251 13.2497 8.67408 5.60501 8.68283 5.18908C8.6922 4.75158 9.09345 4.52158 9.38908 4.52126C9.6847 4.52095 10.145 4.6522 10.2028 5.15908C10.2606 5.66595 10.5841 10.0497 10.6563 10.3369C10.745 10.6894 11.076 10.6206 11.0953 10.3169C11.1078 10.1197 11.2481 4.24439 11.2653 3.9372C11.2885 3.52408 11.6869 3.25845 12.1328 3.26908C12.5788 3.27939 12.9241 3.51814 12.941 4.04001C12.9575 4.56251 12.9266 10.0472 12.9375 10.3722C12.9503 10.7585 13.4913 10.8297 13.5625 10.3869C13.6097 10.0938 14.005 4.78033 14.0156 4.52501C14.0325 4.11595 14.5285 3.83908 14.921 3.9022C15.3135 3.96533 15.6775 4.2597 15.6625 4.69126C15.6516 5.00533 15.3791 10.7244 15.3519 11.191C15.3247 11.6575 15.835 11.7522 15.9347 11.3088C16.0335 10.8703 16.4788 7.4572 16.5375 7.16814C16.6085 6.81845 16.9563 6.6172 17.3416 6.71033C17.7269 6.80345 17.901 7.04533 17.8947 7.40158C17.8881 7.75751 17.1522 15.7744 17.0331 17.0878C16.9072 18.4747 15.125 20.4338 15.125 20.4338Z" />
</svg>