<svg width="32" height="32" viewBox="0 0 32 32" fill="none" xmlns="http://www.w3.org/2000/svg">
<g id="Group 342">
<rect id="upload-c0805a1f-06b9-428f-b512-5f3b00b2c36d 4" width="32" height="32" rx="4" fill="#1E1E22"/>
<g id="Group 427319192">
<rect id="upload-c0805a1f-06b9-428f-b512-5f3b00b2c36d 3" x="4" y="4" width="24" height="24" rx="12" fill="#1E1E22"/>
<path id="Vector" d="M16 28C12.9613 28 10.1887 26.8684 8.0743 25.0063L14.8876 20.1442C15.307 19.8451 15.8839 20.1787 15.8332 20.6917L15.5647 23.4163C15.5092 23.977 16.1875 24.2977 16.5859 23.8993L20.2426 20.2426C22.6372 17.848 22.5847 13.9333 20.0851 11.6053C17.7043 9.388 13.9561 9.5584 11.6557 11.8591L8.1118 15.4027C7.7122 15.8026 8.0365 16.4827 8.5987 16.4239L11.3254 16.1386C11.8393 16.0849 12.1765 16.663 11.8762 17.0839L6.9937 23.9257C5.1316 21.8113 4 19.0387 4 16C4 9.3727 9.3727 4 16 4C22.6273 4 28 9.3727 28 16C28 22.6273 22.6273 28 16 28Z" fill="white"/>
</g>
</g>
</svg>
