<svg width="125" height="15" viewBox="0 0 125 15" fill="none" xmlns="http://www.w3.org/2000/svg">
    <path d="M87.222 5.11767V0.208875C88.2128 -0.0324085 89.1469 0.13486 90.0496 0.0872119C90.2653 0.864793 90.3393 11.9882 90.1448 13.8617C89.2128 13.963 88.2645 13.9326 87.2778 13.8789C87.2474 13.4348 87.2231 13.0678 87.1927 12.6208C87.0431 12.6785 86.8975 12.7462 86.757 12.8235C84.2608 14.4344 81.6177 14.4892 78.9249 13.4703C77.5866 12.9634 76.7498 11.9152 76.3922 10.5121C76.1149 9.42913 76.1103 8.29424 76.379 7.20912C76.7923 5.52115 77.8845 4.42627 79.5196 3.95181C82.1728 3.1793 84.7177 3.37091 87.222 5.11767ZM83.1505 11.7347C83.9873 11.5725 84.8332 11.4924 85.6224 11.238C86.7489 10.874 87.2251 10.07 87.2251 8.83119C87.2251 7.59233 86.7429 6.78535 85.6376 6.39808C84.0667 5.84404 82.3538 5.84404 80.7829 6.39808C79.6898 6.77319 79.1619 7.62275 79.1619 8.81903C79.1619 10.0153 79.6756 10.874 80.7758 11.2369C81.5305 11.4853 82.341 11.5715 83.1505 11.7347Z"
          fill="currentColor"/>
    <path d="M108.534 9.54603H97.8012C97.937 10.4584 98.4273 10.9897 99.1182 11.2016C101.277 11.8656 103.416 12.0633 105.336 10.4919C105.459 10.3905 105.616 10.2668 105.761 10.2638C106.623 10.2425 107.483 10.2526 108.435 10.2526C108.104 11.6426 107.305 12.4911 106.206 13.1004C105.181 13.6661 104.058 13.88 102.913 13.9976C101.252 14.1679 99.6106 14.0747 98.0261 13.5069C95.8227 12.7192 94.7032 11.1316 94.7012 8.84348C94.7012 6.48235 95.8156 4.85115 98.0626 4.10094C100.348 3.32039 102.824 3.29906 105.123 4.04012C107.498 4.79033 108.865 7.01459 108.534 9.54603ZM97.9258 7.55189C99.8051 7.74553 104.626 7.67051 105.308 7.45051C104.903 6.61819 104.498 6.24512 103.63 6.02309C102.321 5.68173 100.945 5.68522 99.6369 6.03323C98.8771 6.23396 98.2216 6.62224 97.9258 7.55189Z"
          fill="currentColor"/>
    <path d="M20.0039 0.120667H22.8233C22.8577 1.83601 22.8233 3.53411 22.8476 5.36807C23.2174 5.16531 23.4717 5.02642 23.7229 4.88347C25.8899 3.64056 28.2018 3.24315 30.6484 3.74397C32.6077 4.14949 33.8457 5.44511 33.948 7.44026C34.0564 9.55098 33.9723 11.6708 33.9723 13.8373H31.1205C31.0961 13.5534 31.0556 13.2949 31.0536 13.0374C31.0465 11.9567 31.0536 10.876 31.0485 9.79329C31.0485 9.48915 31.0485 9.18501 31.0222 8.88087C30.8388 6.93945 30.0324 6.19229 28.0944 6.14362C26.3721 6.10104 24.8474 6.63734 23.4636 7.6339C23.0239 7.9502 22.802 8.32936 22.8233 8.91229C22.8689 10.1937 22.8375 11.4782 22.8375 12.7647V13.8241H20.0697C19.8783 13.1114 19.8114 1.67481 20.0039 0.120667Z"
          fill="currentColor"/>
    <path d="M60.4665 13.8363H57.6572V3.78656H60.4543C60.4888 4.26101 60.5252 4.74561 60.5678 5.33158C60.8829 5.16329 61.1402 5.03453 61.3884 4.89158C63.5159 3.66489 65.7912 3.25533 68.2054 3.72167C70.2853 4.12719 71.5304 5.41572 71.6357 7.51022C71.737 9.5885 71.659 11.6769 71.659 13.8251H68.8224C68.7804 13.5782 68.7524 13.3291 68.7383 13.079C68.7282 11.8624 68.7484 10.651 68.7282 9.43643C68.6887 6.9202 67.7495 6.04428 65.2229 6.1558C63.7327 6.22169 62.4045 6.74887 61.1908 7.60147C60.7127 7.93602 60.4817 8.34051 60.507 8.95791C60.5526 10.2383 60.5232 11.5208 60.5181 12.8022C60.5141 13.1307 60.4847 13.4592 60.4665 13.8363Z"
          fill="currentColor"/>
    <path d="M52.7423 13.868H49.9412C49.9118 13.3611 49.8844 12.8967 49.85 12.3128C49.5461 12.476 49.2887 12.6007 49.0395 12.7437C46.8502 14.0221 44.504 14.4113 42.0259 13.8811C40.2277 13.4979 38.9654 12.2996 38.8469 10.5265C38.699 8.31743 38.8114 6.09012 38.8114 3.80908H41.6268C41.6531 4.09903 41.7018 4.38694 41.7038 4.67587C41.7149 5.89242 41.6805 7.10898 41.72 8.32553C41.798 10.7586 42.7159 11.593 45.1321 11.4967C46.6243 11.4359 47.9586 10.9269 49.1844 10.0774C49.697 9.72254 49.93 9.29169 49.9118 8.63779C49.8662 7.05627 49.8966 5.47373 49.8966 3.81922H52.6502C52.8619 4.51569 52.9419 11.9174 52.7423 13.868Z"
          fill="currentColor"/>
    <path d="M6.61636 4.44344H0.788086V1.88867H15.4525V4.41505C13.557 4.49819 11.6524 4.39174 9.6779 4.47791V13.8332H6.61737L6.61636 4.44344Z"
          fill="currentColor"/>
    <path d="M113.258 3.72278H116.067C116.101 4.01171 116.133 4.22967 116.152 4.45575C116.171 4.68182 116.18 4.916 116.202 5.28401C118.624 3.4683 121.221 3.16823 124.002 3.89918V6.32416C122.57 6.06159 121.208 5.89026 119.824 6.16196C118.765 6.36676 117.75 6.75404 116.823 7.30654C116.338 7.59446 116.126 7.93915 116.142 8.52309C116.184 10.0438 116.158 11.5645 116.153 13.0781C116.153 13.3052 116.121 13.5333 116.099 13.8161H113.344C113.116 13.145 113.035 5.58613 113.258 3.72278Z"
          fill="currentColor"/>
</svg>
