<svg width="24" height="24" viewBox="0 0 24 24" fill="none" xmlns="http://www.w3.org/2000/svg">
    <g id="Icons=Icons120">
        <path id="Union" fill-rule="evenodd" clip-rule="evenodd"
            d="M19.6875 11.0177C20.23 15.2633 17.228 19.145 12.9823 19.6875C11.2352 19.9107 9.5498 19.5338 8.1333 18.717L17.2819 6.32842C18.562 7.51926 19.4485 9.14785 19.6875 11.0177ZM6.47119 17.4315L16.1611 5.4616C14.6866 4.52212 12.8874 4.07358 11.0176 4.31251C6.77196 4.85505 3.76996 8.73667 4.3125 12.9823C4.53575 14.7294 5.32442 16.2659 6.47119 17.4315ZM21.6713 10.7641C22.3539 16.1055 18.5772 20.9888 13.2358 21.6714C7.89451 22.3539 3.01118 18.5772 2.32863 13.2359C1.64609 7.89452 5.42279 3.01119 10.7641 2.32864C16.1055 1.6461 20.9888 5.4228 21.6713 10.7641Z"
            fill="currentColor" />
    </g>
</svg>