<svg width="24" height="24" viewBox="0 0 24 24" fill="none" xmlns="http://www.w3.org/2000/svg">
    <path d="M15.5938 3.875C14.4219 3.875 13.3311 4.22166 12.4218 4.82166C12.5405 4.81541 12.6594 4.8125 12.7812 4.8125C16.6656 4.8125 19.8125 7.95937 19.8125 11.8438C19.8125 12.5656 19.7031 13.2591 19.5031 13.9122C20.6531 12.8591 21.375 11.3406 21.375 9.65625C21.375 6.4625 18.7875 3.875 15.5938 3.875ZM12.3125 5.4375C11.0719 5.4375 9.91584 5.80005 8.94397 6.42505C9.22834 6.39067 9.51875 6.375 9.8125 6.375C13.9531 6.375 17.3125 9.73438 17.3125 13.875C17.3125 14.5125 17.2312 15.1344 17.0812 15.725C18.0062 14.6375 18.5625 13.225 18.5625 11.6875C18.5625 8.23438 15.7656 5.4375 12.3125 5.4375ZM9.5 7C5.87563 7 2.9375 9.93813 2.9375 13.5625C2.9375 17.1869 5.87563 20.125 9.5 20.125C13.1244 20.125 16.0625 17.1869 16.0625 13.5625C16.0625 9.93813 13.1244 7 9.5 7Z"
          fill="currentColor"/>
</svg>
