<svg width="12" height="12" viewBox="0 0 12 12" fill="none" xmlns="http://www.w3.org/2000/svg">
    <path d="M2.025 11.71L1.215 11.065L9.57 0.789999L10.365 1.435L2.025 11.71ZM8.685 11.695C7.955 11.695 7.37 11.485 6.93 11.065C6.5 10.635 6.285 10.055 6.285 9.325V9.235C6.285 8.505 6.5 7.93 6.93 7.51C7.37 7.08 7.955 6.865 8.685 6.865C9.395 6.865 9.97 7.08 10.41 7.51C10.85 7.93 11.07 8.505 11.07 9.235V9.325C11.07 10.055 10.85 10.635 10.41 11.065C9.98 11.485 9.405 11.695 8.685 11.695ZM8.685 10.825C9.105 10.825 9.435 10.69 9.675 10.42C9.925 10.15 10.05 9.8 10.05 9.37V9.19C10.05 8.75 9.925 8.4 9.675 8.14C9.435 7.87 9.105 7.735 8.685 7.735C8.255 7.735 7.915 7.87 7.665 8.14C7.425 8.4 7.305 8.75 7.305 9.19V9.37C7.305 9.8 7.425 10.15 7.665 10.42C7.915 10.69 8.255 10.825 8.685 10.825ZM2.91 5.635C2.18 5.635 1.6 5.42 1.17 4.99C0.74 4.56 0.525 3.985 0.525 3.265V3.175C0.525 2.445 0.74 1.87 1.17 1.45C1.6 1.02 2.18 0.804999 2.91 0.804999C3.63 0.804999 4.205 1.02 4.635 1.45C5.075 1.87 5.295 2.445 5.295 3.175V3.265C5.295 3.985 5.075 4.56 4.635 4.99C4.205 5.42 3.63 5.635 2.91 5.635ZM2.91 4.765C3.33 4.765 3.665 4.63 3.915 4.36C4.165 4.09 4.29 3.74 4.29 3.31V3.13C4.29 2.69 4.165 2.34 3.915 2.08C3.665 1.81 3.33 1.675 2.91 1.675C2.48 1.675 2.14 1.81 1.89 2.08C1.65 2.34 1.53 2.69 1.53 3.13V3.31C1.53 3.74 1.65 4.09 1.89 4.36C2.14 4.63 2.48 4.765 2.91 4.765Z"
          fill="currentColor"/>
</svg>
