<svg width="24" height="24" viewBox="0 0 24 24" fill="none" xmlns="http://www.w3.org/2000/svg">
    <path d="M12.9338 1.92L12.5625 6H11.4375L11.0663 1.92C11.3738 1.89 11.685 1.875 12 1.875C12.315 1.875 12.6263 1.89 12.9338 1.92ZM7.7685 2.8035L9.48712 6.52237L8.51288 7.08487L6.1515 3.73725C6.40275 3.55762 6.66488 3.38887 6.9375 3.23137C7.21012 3.07387 7.48725 2.93137 7.7685 2.8035ZM3.73725 6.1515L7.08487 8.51288L6.52237 9.48712L2.8035 7.7685C2.93137 7.48725 3.07387 7.21012 3.23137 6.9375C3.38887 6.66488 3.55762 6.40275 3.73725 6.1515ZM1.92 11.0663L6 11.4375V12.5625L1.92 12.9338C1.89 12.6263 1.875 12.315 1.875 12C1.875 11.685 1.89 11.3738 1.92 11.0663ZM2.8035 16.2315L6.52237 14.5129L7.08487 15.4871L3.73725 17.8485C3.55762 17.5973 3.38887 17.3351 3.23137 17.0625C3.07387 16.7899 2.93137 16.5128 2.8035 16.2315ZM6.1515 20.2628L8.51288 16.9151L9.48712 17.4776L7.7685 21.1965C7.48725 21.0686 7.21012 20.9261 6.9375 20.7686C6.66488 20.6111 6.40275 20.4424 6.1515 20.2628ZM11.0663 22.08L11.4375 18H12.5625L12.9338 22.08C12.6263 22.11 12.315 22.125 12 22.125C11.685 22.125 11.3738 22.11 11.0663 22.08ZM16.2315 21.1965L14.5129 17.4776L15.4871 16.9151L17.8485 20.2628C17.5973 20.4424 17.3351 20.6111 17.0625 20.7686C16.7899 20.9261 16.5128 21.0686 16.2315 21.1965ZM20.2628 17.8485L16.9151 15.4871L17.4776 14.5129L21.1965 16.2315C21.0686 16.5128 20.9261 16.7899 20.7686 17.0625C20.6111 17.3351 20.4424 17.5973 20.2628 17.8485ZM22.08 12.9338L18 12.5625V11.4375L22.08 11.0663C22.11 11.3738 22.125 11.685 22.125 12C22.125 12.315 22.11 12.6263 22.08 12.9338ZM21.1965 7.7685L17.4776 9.48712L16.9151 8.51288L20.2628 6.1515C20.4424 6.40275 20.6111 6.66488 20.7686 6.9375C20.9261 7.21012 21.0686 7.48725 21.1965 7.7685ZM17.8485 3.73725L15.4871 7.08487L14.5129 6.52237L16.2315 2.8035C16.5128 2.93137 16.7899 3.07387 17.0625 3.23137C17.3351 3.38887 17.5973 3.55762 17.8485 3.73725Z"
          fill="currentColor"/>
</svg>
