<svg width="24" height="24" viewBox="0 0 24 24" fill="none" xmlns="http://www.w3.org/2000/svg">
    <path
        d="M8.77714 16.9231C8.36094 16.9231 7.96178 17.0852 7.66748 17.3737C7.37319 17.6622 7.20785 18.0535 7.20785 18.4615C7.20785 18.8696 7.37319 19.2609 7.66748 19.5494C7.96178 19.8379 8.36094 20 8.77714 20C9.19334 20 9.59249 19.8379 9.88679 19.5494C10.1811 19.2609 10.3464 18.8696 10.3464 18.4615C10.3464 18.0535 10.1811 17.6622 9.88679 17.3737C9.59249 17.0852 9.19334 16.9231 8.77714 16.9231ZM16.9374 16.9231C16.5212 16.9231 16.1221 17.0852 15.8278 17.3737C15.5335 17.6622 15.3681 18.0535 15.3681 18.4615C15.3681 18.8696 15.5335 19.2609 15.8278 19.5494C16.1221 19.8379 16.5212 20 16.9374 20C17.3536 20 17.7528 19.8379 18.0471 19.5494C18.3414 19.2609 18.5067 18.8696 18.5067 18.4615C18.5067 18.0535 18.3414 17.6622 18.0471 17.3737C17.7528 17.0852 17.3536 16.9231 16.9374 16.9231ZM6.1059 6.49077L5.79267 5.18615C5.62601 4.49108 4.99359 4 4.26544 4H2.5L2.81386 5.23077H4.26544C4.41107 5.23077 4.53756 5.32892 4.57083 5.468L6.79701 14.7437C6.93072 15.3018 7.4332 15.6923 8.01886 15.6923H17.9788C18.5908 15.6923 19.1109 15.2631 19.2154 14.6726L20.5 7.43169L6.1059 6.49077Z"
        fill="white" />
</svg>