<svg width="24" height="24" viewBox="0 0 24 24" fill="none" xmlns="http://www.w3.org/2000/svg">
<path d="M17.2526 7.7655C16.0151 6.23213 14.124 5.25 12 5.25C9.876 5.25 7.98488 6.23213 6.74738 7.7655L3 12L6.74738 16.2345C7.98488 17.7679 9.876 18.75 12 18.75C14.124 18.75 16.0151 17.7679 17.2526 16.2345L21 12L17.2526 7.7655ZM12 15.375C10.1359 15.375 8.625 13.8641 8.625 12C8.625 10.1359 10.1359 8.625 12 8.625C13.8641 8.625 15.375 10.1359 15.375 12C15.375 13.8641 13.8641 15.375 12 15.375Z" fill="currentColor"/>
</svg>
