<svg width="24" height="24" viewBox="0 0 24 24" fill="none" xmlns="http://www.w3.org/2000/svg">
<path d="M16.6869 2.32471C15.4119 2.32471 14.1367 2.81235 13.1617 3.78735L9.78672 7.16235L9.74936 7.19971C11.3244 6.89971 12.4866 7.79985 12.6366 7.91235L14.962 5.58765C15.8995 4.65015 17.4367 4.65015 18.4117 5.58765C18.8992 6.07515 19.1244 6.675 19.1244 7.3125C19.1244 7.95 18.8992 8.54985 18.4117 9.03735L14.6617 12.7874C13.7242 13.7249 12.187 13.7249 11.212 12.7874C10.8745 12.4499 10.6491 12.0375 10.5741 11.625C10.2366 11.8125 9.41157 12.3375 9.07407 13.3125C9.26157 13.65 9.52422 13.9501 9.78672 14.2126C11.7367 16.1626 14.887 16.1626 16.837 14.2126L20.212 10.8376C22.162 8.88765 22.162 5.73735 20.212 3.78735C19.237 2.81235 17.9619 2.32471 16.6869 2.32471ZM10.6869 8.32471C9.41187 8.32471 8.13672 8.81235 7.16172 9.78735L3.78672 13.1624C1.83672 15.1124 1.83672 18.2626 3.78672 20.2126C5.73672 22.1626 8.88701 22.1626 10.837 20.2126L14.212 16.8376L14.2494 16.8003C12.6744 17.1003 11.5122 16.2001 11.3622 16.0876L9.03672 18.4124C8.09922 19.3499 6.56201 19.3499 5.58701 18.4124C5.09951 17.9249 4.87437 17.325 4.87437 16.6875C4.87437 16.05 5.09951 15.4501 5.58701 14.9626L9.33701 11.2126C10.2745 10.2751 11.8117 10.2751 12.7867 11.2126C13.1242 11.5501 13.3497 11.9625 13.4247 12.375C13.7622 12.1875 14.6247 11.6625 14.9247 10.6875C14.7372 10.35 14.4745 10.0499 14.212 9.78735C13.237 8.81235 11.9619 8.32471 10.6869 8.32471Z" fill="currentColor"/>
</svg>
