<svg width="24" height="24" viewBox="0 0 24 24" fill="none" xmlns="http://www.w3.org/2000/svg">
<path d="M3 3H7.5V7.5H3V3ZM3 16.5H7.5V21H3V16.5ZM16.5 3H21V7.5H16.5V3ZM16.5 16.5H21V21H16.5V16.5ZM5.25 11.25C5.05109 11.25 4.86032 11.329 4.71967 11.4697C4.57902 11.6103 4.5 11.8011 4.5 12C4.5 12.1989 4.57902 12.3897 4.71967 12.5303C4.86032 12.671 5.05109 12.75 5.25 12.75C5.44891 12.75 5.63968 12.671 5.78033 12.5303C5.92098 12.3897 6 12.1989 6 12C6 11.8011 5.92098 11.6103 5.78033 11.4697C5.63968 11.329 5.44891 11.25 5.25 11.25ZM5.25 8.625C5.05109 8.625 4.86032 8.70402 4.71967 8.84467C4.57902 8.98532 4.5 9.17609 4.5 9.375C4.5 9.57391 4.57902 9.76468 4.71967 9.90533C4.86032 10.046 5.05109 10.125 5.25 10.125C5.44891 10.125 5.63968 10.046 5.78033 9.90533C5.92098 9.76468 6 9.57391 6 9.375C6 9.17609 5.92098 8.98532 5.78033 8.84467C5.63968 8.70402 5.44891 8.625 5.25 8.625ZM5.25 13.875C5.05109 13.875 4.86032 13.954 4.71967 14.0947C4.57902 14.2353 4.5 14.4261 4.5 14.625C4.5 14.8239 4.57902 15.0147 4.71967 15.1553C4.86032 15.296 5.05109 15.375 5.25 15.375C5.44891 15.375 5.63968 15.296 5.78033 15.1553C5.92098 15.0147 6 14.8239 6 14.625C6 14.4261 5.92098 14.2353 5.78033 14.0947C5.63968 13.954 5.44891 13.875 5.25 13.875ZM18.75 11.25C18.5511 11.25 18.3603 11.329 18.2197 11.4697C18.079 11.6103 18 11.8011 18 12C18 12.1989 18.079 12.3897 18.2197 12.5303C18.3603 12.671 18.5511 12.75 18.75 12.75C18.9489 12.75 19.1397 12.671 19.2803 12.5303C19.421 12.3897 19.5 12.1989 19.5 12C19.5 11.8011 19.421 11.6103 19.2803 11.4697C19.1397 11.329 18.9489 11.25 18.75 11.25ZM18.75 8.625C18.5511 8.625 18.3603 8.70402 18.2197 8.84467C18.079 8.98532 18 9.17609 18 9.375C18 9.57391 18.079 9.76468 18.2197 9.90533C18.3603 10.046 18.5511 10.125 18.75 10.125C18.9489 10.125 19.1397 10.046 19.2803 9.90533C19.421 9.76468 19.5 9.57391 19.5 9.375C19.5 9.17609 19.421 8.98532 19.2803 8.84467C19.1397 8.70402 18.9489 8.625 18.75 8.625ZM18.75 13.875C18.5511 13.875 18.3603 13.954 18.2197 14.0947C18.079 14.2353 18 14.4261 18 14.625C18 14.8239 18.079 15.0147 18.2197 15.1553C18.3603 15.296 18.5511 15.375 18.75 15.375C18.9489 15.375 19.1397 15.296 19.2803 15.1553C19.421 15.0147 19.5 14.8239 19.5 14.625C19.5 14.4261 19.421 14.2353 19.2803 14.0947C19.1397 13.954 18.9489 13.875 18.75 13.875ZM12 4.5C11.8011 4.5 11.6103 4.57902 11.4697 4.71967C11.329 4.86032 11.25 5.05109 11.25 5.25C11.25 5.44891 11.329 5.63968 11.4697 5.78033C11.6103 5.92098 11.8011 6 12 6C12.1989 6 12.3897 5.92098 12.5303 5.78033C12.671 5.63968 12.75 5.44891 12.75 5.25C12.75 5.05109 12.671 4.86032 12.5303 4.71967C12.3897 4.57902 12.1989 4.5 12 4.5ZM14.625 4.5C14.4261 4.5 14.2353 4.57902 14.0947 4.71967C13.954 4.86032 13.875 5.05109 13.875 5.25C13.875 5.44891 13.954 5.63968 14.0947 5.78033C14.2353 5.92098 14.4261 6 14.625 6C14.8239 6 15.0147 5.92098 15.1553 5.78033C15.296 5.63968 15.375 5.44891 15.375 5.25C15.375 5.05109 15.296 4.86032 15.1553 4.71967C15.0147 4.57902 14.8239 4.5 14.625 4.5ZM9.375 4.5C9.17609 4.5 8.98532 4.57902 8.84467 4.71967C8.70402 4.86032 8.625 5.05109 8.625 5.25C8.625 5.44891 8.70402 5.63968 8.84467 5.78033C8.98532 5.92098 9.17609 6 9.375 6C9.57391 6 9.76468 5.92098 9.90533 5.78033C10.046 5.63968 10.125 5.44891 10.125 5.25C10.125 5.05109 10.046 4.86032 9.90533 4.71967C9.76468 4.57902 9.57391 4.5 9.375 4.5ZM12 18C11.8011 18 11.6103 18.079 11.4697 18.2197C11.329 18.3603 11.25 18.5511 11.25 18.75C11.25 18.9489 11.329 19.1397 11.4697 19.2803C11.6103 19.421 11.8011 19.5 12 19.5C12.1989 19.5 12.3897 19.421 12.5303 19.2803C12.671 19.1397 12.75 18.9489 12.75 18.75C12.75 18.5511 12.671 18.3603 12.5303 18.2197C12.3897 18.079 12.1989 18 12 18ZM14.625 18C14.4261 18 14.2353 18.079 14.0947 18.2197C13.954 18.3603 13.875 18.5511 13.875 18.75C13.875 18.9489 13.954 19.1397 14.0947 19.2803C14.2353 19.421 14.4261 19.5 14.625 19.5C14.8239 19.5 15.0147 19.421 15.1553 19.2803C15.296 19.1397 15.375 18.9489 15.375 18.75C15.375 18.5511 15.296 18.3603 15.1553 18.2197C15.0147 18.079 14.8239 18 14.625 18ZM9.375 18C9.17609 18 8.98532 18.079 8.84467 18.2197C8.70402 18.3603 8.625 18.5511 8.625 18.75C8.625 18.9489 8.70402 19.1397 8.84467 19.2803C8.98532 19.421 9.17609 19.5 9.375 19.5C9.57391 19.5 9.76468 19.421 9.90533 19.2803C10.046 19.1397 10.125 18.9489 10.125 18.75C10.125 18.5511 10.046 18.3603 9.90533 18.2197C9.76468 18.079 9.57391 18 9.375 18Z" fill="white"/>
</svg>
