<svg width="18" height="18" viewBox="0 0 18 18" fill="none" xmlns="http://www.w3.org/2000/svg">
<g id="Clip path group">
<mask id="mask0_7483_28184" style="mask-type:luminance" maskUnits="userSpaceOnUse" x="0" y="0" width="18" height="18">
<g id="clip0_710_6219">
<path id="Vector" d="M18 0H0V18H18V0Z" fill="white"/>
</g>
</mask>
<g mask="url(#mask0_7483_28184)">
<g id="Group">
<path id="Vector_2" d="M17.64 9.20457C17.64 8.56638 17.5828 7.95276 17.4764 7.36362H9V10.845H13.8436C13.635 11.97 13.001 12.9232 12.0478 13.5614V15.8196H14.9564C16.6582 14.2528 17.64 11.9454 17.64 9.20457Z" fill="#4285F4"/>
<path id="Vector_3" d="M9.00004 18C11.43 18 13.4673 17.194 14.9563 15.8196L12.0477 13.5614C11.2418 14.1014 10.2109 14.4204 9.00004 14.4204C6.6559 14.4204 4.67185 12.8372 3.96409 10.71H0.957275V13.0418C2.43823 15.9832 5.48185 18 9.00004 18Z" fill="#34A853"/>
<path id="Vector_4" d="M3.96405 10.71C3.78405 10.17 3.68181 9.59319 3.68181 9C3.68181 8.40681 3.78405 7.83 3.96405 7.29V4.95819H0.95724C0.34776 6.17319 0 7.54776 0 9C0 10.4522 0.34776 11.8268 0.95724 13.0418L3.96405 10.71Z" fill="#FBBC04"/>
<path id="Vector_5" d="M9.00004 3.57957C10.3213 3.57957 11.5077 4.03362 12.4405 4.92543L15.0218 2.34405C13.4632 0.89181 11.4259 0 9.00004 0C5.48185 0 2.43823 2.01681 0.957275 4.95819L3.96409 7.29C4.67185 5.16276 6.6559 3.57957 9.00004 3.57957Z" fill="#E94235"/>
</g>
</g>
</g>
</svg>
