<svg width="24" height="24" viewBox="0 0 24 24" fill="none" xmlns="http://www.w3.org/2000/svg">
<path d="M8.25 3C7.45435 3 6.69129 3.31607 6.12868 3.87868C5.56607 4.44129 5.25 5.20435 5.25 6C5.25 6.79565 5.56607 7.55871 6.12868 8.12132C6.69129 8.68393 7.45435 9 8.25 9C8.82821 8.99921 9.39387 8.83134 9.87891 8.5166L15.0461 11.4814C14.9871 11.8235 14.9878 12.1731 15.0483 12.5149L10.4487 15.9624C10.1682 15.6593 9.82815 15.4173 9.4498 15.2517C9.07146 15.0861 8.663 15.0004 8.25 15C7.45435 15 6.69129 15.3161 6.12868 15.8787C5.56607 16.4413 5.25 17.2044 5.25 18C5.25 18.7956 5.56607 19.5587 6.12868 20.1213C6.69129 20.6839 7.45435 21 8.25 21C8.69839 20.9998 9.14102 20.8991 9.54535 20.7052C9.94968 20.5114 10.3054 20.2294 10.5864 19.88C10.8674 19.5306 11.0665 19.1226 11.169 18.6861C11.2716 18.2496 11.275 17.7957 11.179 17.3577L16.1982 14.3979C16.7178 14.7885 17.3501 14.9998 18 15C18.7956 15 19.5587 14.6839 20.1213 14.1213C20.6839 13.5587 21 12.7956 21 12C21 11.2044 20.6839 10.4413 20.1213 9.87868C19.5587 9.31607 18.7956 9 18 9C17.5706 9.0007 17.1463 9.09359 16.7558 9.27238C16.3654 9.45118 16.0179 9.71171 15.7368 10.0364L11.1526 6.75146C11.2673 6.30823 11.279 5.84463 11.1868 5.39616C11.0947 4.9477 10.9011 4.52628 10.6209 4.16418C10.3408 3.80208 9.98145 3.50891 9.57049 3.30712C9.15953 3.10532 8.70783 3.00027 8.25 3Z" fill="currentColor"/>
</svg>
