<svg width="24" height="24" viewBox="0 0 24 24" fill="none" xmlns="http://www.w3.org/2000/svg">
    <path d="M11.1667 2V4.5H12.8333V2H11.1667ZM5.51888 4.34049L4.34049 5.51888L6.10807 7.28646L7.28646 6.10807L5.51888 4.34049ZM18.4811 4.34049L16.7135 6.10807L17.8919 7.28646L19.6595 5.51888L18.4811 4.34049ZM12 6.16667C10.4529 6.16667 8.96917 6.78125 7.87521 7.87521C6.78125 8.96917 6.16667 10.4529 6.16667 12C6.16667 13.5471 6.78125 15.0308 7.87521 16.1248C8.96917 17.2188 10.4529 17.8333 12 17.8333C13.5471 17.8333 15.0308 17.2188 16.1248 16.1248C17.2188 15.0308 17.8333 13.5471 17.8333 12C17.8333 10.4529 17.2188 8.96917 16.1248 7.87521C15.0308 6.78125 13.5471 6.16667 12 6.16667ZM2 11.1667V12.8333H4.5V11.1667H2ZM19.5 11.1667V12.8333H22V11.1667H19.5ZM6.10807 16.7135L4.34049 18.4811L5.51888 19.6595L7.28646 17.8919L6.10807 16.7135ZM17.8919 16.7135L16.7135 17.8919L18.4811 19.6595L19.6595 18.4811L17.8919 16.7135ZM11.1667 19.5V22H12.8333V19.5H11.1667Z"
          fill="currentColor"/>
</svg>
