<svg width="30" height="30" viewBox="0 0 30 30" fill="none" xmlns="http://www.w3.org/2000/svg">
<g id="coinbase-wallet-logo (1) 1" clip-path="url(#clip0_6804_35251)">
<g id="Layer_x0020_1">
<path id="Vector" fill-rule="evenodd" clip-rule="evenodd" d="M6.2484 0H23.7504C27.2028 0 30 3.0096 30 6.7224V23.2776C30 26.9904 27.2028 30 23.7516 30H6.2484C2.7972 30 0 26.9904 0 23.2776V6.7224C0 3.0096 2.7972 0 6.2484 0Z" fill="#0052FF"/>
<path id="Vector_2" fill-rule="evenodd" clip-rule="evenodd" d="M15 4.34521C20.8848 4.34521 25.6548 9.11522 25.6548 15C25.6548 20.8848 20.8848 25.6548 15 25.6548C9.11522 25.6548 4.34521 20.8848 4.34521 15C4.34521 9.11522 9.11522 4.34521 15 4.34521Z" fill="white"/>
<path id="Vector_3" fill-rule="evenodd" clip-rule="evenodd" d="M12.3754 11.5945H17.623C18.055 11.5945 18.4042 11.9713 18.4042 12.4345V17.5645C18.4042 18.0289 18.0538 18.4045 17.623 18.4045H12.3754C11.9434 18.4045 11.5942 18.0277 11.5942 17.5645V12.4345C11.5942 11.9713 11.9446 11.5945 12.3754 11.5945Z" fill="#0052FF"/>
</g>
</g>
<defs>
<clipPath id="clip0_6804_35251">
<rect width="30" height="30" fill="white"/>
</clipPath>
</defs>
</svg>
