<svg width="12" height="13" viewBox="0 0 12 13" fill="none" xmlns="http://www.w3.org/2000/svg">
<path d="M0.797944 0.5C0.356445 0.5 0 0.856442 0 1.29794V12.5H9.92881C10.2644 12.5 10.5871 12.3667 10.8247 12.1291L11.6291 11.3247C11.8667 11.0871 12 10.7644 12 10.4288V0.5H0.797944ZM7.83516 2.04294L3.93202 5.94608C3.83567 6.0424 3.70402 6.09699 3.56756 6.09699C3.36848 6.09699 3.18543 5.98142 3.10034 5.80156L1.58789 2.60489C1.46427 2.3432 1.65532 2.04294 1.94433 2.04294H7.83516ZM1.54294 10.9571V7.15986C1.54294 6.95757 1.70671 6.79379 1.90901 6.79379H5.70617L1.54294 10.9571ZM6.02086 6.09699H4.76369L8.54644 2.31429C8.71981 2.14087 8.95584 2.04294 9.20149 2.04294H10.4586L6.67594 5.82563C6.50257 5.99907 6.26651 6.09699 6.02086 6.09699Z" fill="#00F58C"/>
</svg>
