2<svg width="14" height="14" viewBox="0 0 14 14" fill="none" xmlns="http://www.w3.org/2000/svg">
    <path
        d="M4.26087 0C1.82609 0 0 0.954545 0 0.954545V13.9907H8.52174V10.8182H9.13043C9.47373 10.8182 9.73913 11.0956 9.73913 11.4545V11.7727C9.73913 12.9953 10.7002 14 11.8696 14C13.0389 14 14 12.9953 14 11.7727V10.8896C14 9.99017 13.742 9.12571 13.301 8.37651C13.0331 7.92149 12.7826 7.30758 12.7826 6.68182H11.5652C11.5652 7.64697 11.9234 8.46487 12.2643 9.04395C12.5975 9.61011 12.7826 10.2447 12.7826 10.8896V11.7727C12.7826 12.3072 12.3808 12.7273 11.8696 12.7273C11.3583 12.7273 10.9565 12.3072 10.9565 11.7727V11.4545C10.9565 10.4077 10.1317 9.54545 9.13043 9.54545H8.52174V0.954545C8.52174 0.954545 6.69565 0 4.26087 0ZM10.7782 0.822798L9.91746 1.72266L11.5652 3.44531V3.5L10.8305 4.26811C10.7164 4.38743 10.6522 4.5494 10.6522 4.71804V5.40909C10.6522 5.76068 10.9246 6.04545 11.2609 6.04545H12.7826V4.45455V2.91832L10.7782 0.822798ZM4.26087 1.27273C5.47826 1.27273 6.73217 1.54964 7.30435 1.77237V5.40909H5.1216C5.11182 5.38017 5.10071 5.35176 5.08832 5.32395L5.77666 2.95002L5.22087 2.69087L3.99397 4.81499C3.85757 4.85868 3.73285 4.93517 3.62983 5.03835C3.52681 5.14152 3.44834 5.26849 3.40073 5.40909H1.21739V1.77237C1.78652 1.54964 3.04348 1.27273 4.26087 1.27273ZM4.26087 7.30575C4.26087 7.30575 5.78261 9.63425 5.78261 10.5124C5.78261 11.3906 5.10087 12.1033 4.26087 12.1033C3.42087 12.1033 2.73913 11.3906 2.73913 10.5124C2.73913 9.63425 4.26087 7.30575 4.26087 7.30575Z"
        fill="#838383" />
</svg>