<svg width="24" height="24" viewBox="0 0 24 24" fill="none" xmlns="http://www.w3.org/2000/svg">
    <path
        d="M10.4883 3.07396C10.4365 3.07332 10.4077 3.07469 10.4077 3.07469C9.71959 7.13444 7.94246 7.9441 5.51733 11.6828L6.79321 18.3223C6.79321 18.3223 8.40527 19.3774 10.0327 19.5242L10.0291 19.5264C10.0291 19.5264 13.125 19.875 15 19.875C15.0041 19.875 15.0084 19.8743 15.0125 19.8743C15.0144 19.8743 15.0207 19.8749 15.0227 19.875C15.0295 19.8753 15.0364 19.8721 15.0432 19.8721C15.8354 19.8647 16.7291 19.6558 17.25 19.5C17.664 19.3762 18.375 19.3155 18.375 18.1875C18.375 17.0595 17.25 16.875 17.25 16.875C18 16.875 18.75 16.5 18.75 15.5625C18.75 14.625 18.1365 14.25 17.625 14.25C18.375 14.25 19.125 13.875 19.125 12.9375C19.125 12 18.5115 11.625 18 11.625H17.25C18 11.625 18.75 11.25 18.75 10.3125C18.75 9.37499 18 8.99999 17.25 8.99999H16.875H15.375H11.8989C11.8989 8.99999 12.7536 6.43407 12.5669 5.0537C12.3178 3.21127 10.8511 3.07842 10.4883 3.07396Z"
        fill="currentColor" />
</svg>