<svg width="20" height="21" viewBox="0 0 20 21" fill="none" xmlns="http://www.w3.org/2000/svg">
<path d="M10.1055 3.33838L1.27734 12.1671L7.75958 18.6494L16.5883 9.82118V7.68505C17.3876 7.46178 18.253 7.01572 18.9801 6.15429L18.1034 5.4152C17.6445 5.96046 17.1092 6.28898 16.5883 6.48383C16.4895 6.5209 16.3917 6.55216 16.2946 6.58006C16.2738 6.58601 16.2532 6.59127 16.2325 6.59684C16.1575 6.61709 16.0834 6.63453 16.0104 6.64999C15.9821 6.65596 15.9538 6.66203 15.9259 6.66734C15.86 6.67989 15.7954 6.69063 15.7317 6.69979C15.7053 6.70358 15.6783 6.70828 15.6523 6.71154C15.6321 6.71407 15.6134 6.71491 15.5935 6.71713C15.4947 6.72819 15.4026 6.73336 15.3116 6.73783C15.1934 6.74357 15.0815 6.74563 14.9803 6.74343C14.9493 6.74273 14.9144 6.74354 14.8852 6.74231C14.7593 6.73703 14.6459 6.72862 14.5602 6.71881C14.5474 6.78187 14.5287 6.84287 14.5059 6.90176C14.4969 6.92502 14.4844 6.94643 14.474 6.9689C14.4579 7.00374 14.4425 7.039 14.4231 7.07185C14.409 7.09582 14.3919 7.11737 14.3761 7.14011C14.357 7.16758 14.3387 7.19557 14.3174 7.22123C14.2918 7.25167 14.2633 7.27945 14.2345 7.30683C14.0283 7.50809 13.749 7.63525 13.4373 7.63525C12.8042 7.63525 12.2914 7.12249 12.2914 6.48942C12.2914 5.85635 12.8042 5.34359 13.4373 5.34359C13.4459 5.34359 13.4516 5.34638 13.4602 5.34638H13.463C13.7122 5.35211 13.9387 5.43821 14.1249 5.57857C14.5116 5.61581 15.686 5.68138 16.5883 5.18581V3.33838H10.1055ZM9.16614 7.94745L9.97404 8.75535L5.82039 12.909L5.01249 12.1011L9.16614 7.94745ZM9.73905 11.3849L10.547 12.1929L7.8256 14.9142L7.0177 14.1063L9.73905 11.3849Z" fill="currentColor"/>
</svg>
