<svg width="32" height="32" viewBox="0 0 32 32" fill="none" xmlns="http://www.w3.org/2000/svg">
<g id="Frame 427319147">
<path id="Vector" d="M7.14521 10.5804C12.0329 5.80655 19.9671 5.80655 24.8548 10.5804L25.4432 11.1593C25.69 11.3966 25.69 11.7857 25.4432 12.0229L23.4312 13.9875C23.3078 14.1109 23.1085 14.1109 22.9851 13.9875L22.1784 13.1998C18.7618 9.86855 13.2382 9.86855 9.82158 13.1998L8.95792 14.0444C8.83455 14.1678 8.63524 14.1678 8.51186 14.0444L6.49984 12.0799C6.25308 11.8426 6.25308 11.4535 6.49984 11.2162L7.14521 10.5804ZM29.0212 14.6424L30.8149 16.3886C31.0617 16.6259 31.0617 17.015 30.8149 17.2523L22.7384 25.139C22.4916 25.3763 22.093 25.3763 21.8557 25.139L16.1234 19.5395C16.0664 19.4826 15.962 19.4826 15.9051 19.5395L10.1727 25.139C9.92597 25.3763 9.52736 25.3763 9.2901 25.139L1.18507 17.2523C0.938311 17.015 0.938311 16.6259 1.18507 16.3886L2.9788 14.6424C3.22556 14.4051 3.62417 14.4051 3.86144 14.6424L9.5938 20.2419C9.65074 20.2988 9.75514 20.2988 9.81208 20.2419L15.5444 14.6424C15.7912 14.4051 16.1898 14.4051 16.4271 14.6424L22.1594 20.2419C22.2164 20.2988 22.3208 20.2988 22.3777 20.2419L28.1101 14.6424C28.3758 14.4051 28.7744 14.4051 29.0212 14.6424Z" fill="#0471FF"/>
</g>
</svg>
