<svg width="24" height="24" viewBox="0 0 24 24" fill="none" xmlns="http://www.w3.org/2000/svg">
    <g id="Icons=List Cancel" clip-path="url(#clip0_7243_52571)">
        <path id="Subtract" fill-rule="evenodd" clip-rule="evenodd"
              d="M1.5332 14.0007L12.127 3.40625H19.9064V5.62317C18.8236 6.21786 17.4143 6.13917 16.9503 6.09448C16.7268 5.92604 16.4551 5.82273 16.156 5.81586H16.1526C16.1475 5.81586 16.1432 5.81502 16.1389 5.81418C16.1346 5.81334 16.1303 5.8125 16.1251 5.8125C15.3654 5.8125 14.7501 6.42781 14.7501 7.1875C14.7501 7.94719 15.3654 8.5625 16.1251 8.5625C16.4992 8.5625 16.8344 8.4099 17.0818 8.1684C17.1163 8.13553 17.1505 8.1022 17.1812 8.06567C17.2018 8.04088 17.2201 8.01429 17.2384 7.98766C17.2428 7.98121 17.2472 7.97475 17.2517 7.96832C17.2576 7.95983 17.2637 7.95148 17.2697 7.94313C17.2831 7.92466 17.2964 7.90623 17.3081 7.88641C17.3276 7.85353 17.3436 7.81863 17.3596 7.7837C17.3628 7.77676 17.366 7.76981 17.3692 7.76288C17.3739 7.75275 17.3789 7.74279 17.384 7.73283C17.3924 7.71629 17.4008 7.69973 17.4075 7.68231C17.4348 7.61164 17.4572 7.53844 17.4726 7.46277C17.5754 7.47454 17.7116 7.48463 17.8627 7.49097C17.8828 7.49181 17.9052 7.49185 17.9277 7.49189C17.9443 7.49192 17.961 7.49195 17.9768 7.49231C18.0982 7.49496 18.2325 7.49248 18.3743 7.4856C18.4835 7.48023 18.594 7.47402 18.7126 7.46075C18.7234 7.45955 18.7339 7.45869 18.7443 7.45782C18.7571 7.45677 18.7698 7.45571 18.7831 7.45404C18.8023 7.45164 18.8218 7.4486 18.8414 7.44555C18.8538 7.44363 18.8662 7.4417 18.8785 7.43994C18.9549 7.42895 19.0324 7.41606 19.1115 7.401C19.1411 7.39537 19.171 7.38903 19.201 7.38269L19.2128 7.38019C19.3005 7.36163 19.3894 7.3407 19.4794 7.31641C19.4872 7.31431 19.495 7.31224 19.5028 7.31018C19.5198 7.30567 19.5368 7.30117 19.5539 7.29626C19.6704 7.26278 19.7877 7.22527 19.9064 7.18079C20.5315 6.94697 21.1738 6.55275 21.7245 5.89844L22.7766 6.78534C21.904 7.81906 20.8655 8.35433 19.9064 8.62225V10.5293C19.1656 10.235 18.3578 10.0732 17.5122 10.0732C15.124 10.0732 13.037 11.3638 11.9108 13.2856L11.6873 13.0621L8.42163 16.3278L9.39111 17.2972L11.0963 15.5921C11.0489 15.9082 11.0244 16.2317 11.0244 16.561C11.0244 17.583 11.2607 18.5498 11.6817 19.4097L9.31189 21.7794L1.5332 14.0007ZM11.9692 9.90662L10.9998 8.93713L6.01538 13.9215L6.98486 14.891L11.9692 9.90662Z"
              fill="currentColor"/>
        <path id="Vector"
              d="M21.3927 12.6805C19.2497 10.5375 15.7747 10.5375 13.6317 12.6805C11.4888 14.8235 11.4888 18.2985 13.6317 20.4415C15.7747 22.5844 19.2497 22.5844 21.3927 20.4415C23.5357 18.2985 23.5357 14.8235 21.3927 12.6805ZM18.9674 18.9863L17.5122 17.5311L16.057 18.9863L15.0869 18.0162L16.5421 16.561L15.0869 15.1058L16.057 14.1357L17.5122 15.5909L18.9674 14.1357L19.9375 15.1058L18.4823 16.561L19.9375 18.0162L18.9674 18.9863Z"
              fill="currentColor"/>
    </g>
    <defs>
        <clipPath id="clip0_7243_52571">
            <rect width="24" height="24" fill="currentColor"/>
        </clipPath>
    </defs>
</svg>