<svg width="19" height="18" viewBox="0 0 19 18" fill="none" xmlns="http://www.w3.org/2000/svg">
<path d="M11.8442 15.3254H7.84039C5.76359 13.033 4.90367 10.0611 3.69336 8.50627C3.69336 8.50627 4.1082 7.83502 5.04734 8.17955C5.86227 8.47861 5.80273 9.30713 6.92234 9.93736C6.92234 9.93736 7.00602 4.20384 7.01258 3.89189C7.01961 3.56377 7.32055 3.39127 7.54227 3.39103C7.76398 3.3908 8.10922 3.48923 8.15258 3.86939C8.19594 4.24955 8.43852 7.53736 8.49266 7.75275C8.55922 8.01712 8.80742 7.96556 8.82195 7.73775C8.83133 7.58986 8.93656 3.18338 8.94945 2.95298C8.9668 2.64314 9.26562 2.44392 9.60008 2.45189C9.93453 2.45963 10.1935 2.63869 10.2062 3.03009C10.2186 3.42197 10.1954 7.53548 10.2036 7.77923C10.2132 8.06892 10.6189 8.12236 10.6723 7.79025C10.7077 7.57041 11.0042 3.58533 11.0122 3.39384C11.0248 3.08705 11.3968 2.87939 11.6912 2.92673C11.9855 2.97408 12.2586 3.19486 12.2473 3.51853C12.2391 3.75408 12.0348 8.04338 12.0144 8.3933C11.994 8.74322 12.3767 8.81423 12.4515 8.48166C12.5255 8.15283 12.8595 5.59298 12.9036 5.37619C12.9568 5.11392 13.2177 4.96298 13.5066 5.03283C13.7956 5.10267 13.9262 5.28408 13.9215 5.55127C13.9166 5.81822 13.3646 11.8309 13.2753 12.816C13.1809 13.8561 11.8442 15.3254 11.8442 15.3254Z" fill="currentColor"/>
</svg>
