<svg width="24" height="24" viewBox="0 0 24 24" fill="none" xmlns="http://www.w3.org/2000/svg">
    <path d="M8.24479 19.1244C7.86979 17.6244 5.99479 17.9994 5.99479 17.9994C5.99479 17.9994 6.36979 16.1244 4.86979 15.7494L14.2448 6.37444L17.2448 10.1244L8.24479 19.1244ZM19.4948 7.87444L16.1198 4.49944L17.8748 2.74444C17.8748 2.74444 19.1873 2.18194 20.4998 3.49444C21.8123 4.80694 21.2498 6.11944 21.2498 6.11944L19.4948 7.87444ZM3.36979 18.7494L2.67866 20.4279C2.44841 20.9867 3.00754 21.5458 3.56629 21.3156L5.24479 20.6244L3.36979 18.7494ZM20.5785 16.4526L19.4535 17.5776L18.6582 16.7822L19.7832 15.6572L18.5629 14.4369L16.4768 16.5227L15.6814 15.7273L17.7675 13.6416L16.5004 12.3744L12.3218 17.1958L17.1807 22.0547L21.6807 17.5547L20.5785 16.4526ZM11.58 7.45406L10.3598 6.23381L8.27366 8.31994L7.47829 7.52419L9.56441 5.43844L8.25041 4.12444L7.12541 5.24944L6.33004 4.45406L7.45504 3.32906L6.30566 2.17969L1.80566 6.67969L6.79766 11.6717L11.58 7.45406Z"
          fill="currentColor"/>
</svg>
