<svg width="819" height="407" viewBox="0 0 819 407" fill="none" xmlns="http://www.w3.org/2000/svg">
<path d="M710.603 171.344C712.453 159.162 713.4 146.86 713.436 134.538C713.652 14.8695 625.389 -64.3627 516.295 -42.4271C407.202 -20.4916 318.592 94.2966 318.376 213.972C356.113 220.771 394.517 229.579 432.534 240.143C432.675 160.642 491.544 84.3806 564.02 69.8005C626.575 57.2214 678.822 94.718 691.865 156.339" stroke="#838383" stroke-width="1.5" stroke-miterlimit="10"/>
<path d="M696.073 204.8C696.094 193.92 693.909 166.117 691.823 156.346" stroke="#838383" stroke-width="1.5" stroke-miterlimit="10"/>
<path d="M318.359 213.968C356.097 220.768 394.5 229.575 432.517 240.139C432.659 160.638 491.528 84.3771 564.003 69.797C546.296 32.9202 530.25 -4.84551 516.279 -42.4377C407.185 -20.4915 318.575 94.2966 318.359 213.968Z" stroke="#838383" stroke-width="1.5" stroke-miterlimit="10"/>
<path d="M345.525 99.1803C380.001 119.77 415.345 141.539 450.564 163.886" stroke="#838383" stroke-width="1.5" stroke-miterlimit="10"/>
<path d="M416.527 7.19885C442.479 38.8344 469.801 70.9941 497.732 102.775" stroke="#838383" stroke-width="1.5" stroke-miterlimit="10"/>
<path d="M470.457 251.306C470.581 183.7 520.639 118.856 582.27 106.461" stroke="#838383" stroke-width="1.5" stroke-miterlimit="10"/>
<path d="M508.102 263.623C508.204 207.087 550.067 152.858 601.595 142.506" stroke="#838383" stroke-width="1.5" stroke-miterlimit="10"/>
<path d="M450.564 163.886C485.787 186.232 521.173 209.333 555.745 232.55" stroke="#838383" stroke-width="1.5" stroke-miterlimit="10"/>
<path d="M497.733 102.775C525.667 134.566 554.438 166.237 583.247 196.92" stroke="#838383" stroke-width="1.5" stroke-miterlimit="10"/>
<path d="M564.003 69.8148C581.711 106.695 601.188 142.995 621.892 177.701" stroke="#838383" stroke-width="1.5" stroke-miterlimit="10"/>
<path d="M582.269 106.458C656.494 93.1138 703.145 161.222 696.069 226.533" stroke="#838383" stroke-width="1.5" stroke-miterlimit="10"/>
<path d="M601.606 142.495C653.145 132.133 696.389 169.764 696.286 226.289" stroke="#838383" stroke-width="1.5" stroke-miterlimit="10"/>
<path d="M630.199 76.1433C637.635 111.937 647.76 147.12 660.489 181.391" stroke="#838383" stroke-width="1.5" stroke-miterlimit="10"/>
<path d="M677.183 118.332C677.392 147.726 687.099 203.032 694.012 231.817" stroke="#838383" stroke-width="1.5" stroke-miterlimit="10"/>
<path d="M555.744 232.55C590.648 255.994 621.48 277.31 654.383 300.744" stroke="#838383" stroke-width="1.5" stroke-miterlimit="10"/>
<path d="M543.306 360.07C550.089 359.845 556.841 359.053 563.493 357.704C574.039 355.579 598 351.684 607.831 347.122" stroke="#838383" stroke-width="1.5" stroke-miterlimit="10"/>
<path d="M515.499 390.933C529.565 376.484 545.707 365.297 563.485 357.704C491.01 372.277 432.371 319.641 432.516 240.129C394.51 229.565 356.096 220.757 318.359 213.958C318.143 333.651 406.405 412.865 515.499 390.933Z" stroke="#838383" stroke-width="1.5" stroke-miterlimit="10"/>
<path d="M415.854 381.393C441.697 368.155 469.036 358.071 497.285 351.358" stroke="#838383" stroke-width="1.5" stroke-miterlimit="10"/>
<path d="M345.132 317.906C379.904 312.206 415.076 309.292 450.312 309.19" stroke="#838383" stroke-width="1.5" stroke-miterlimit="10"/>
<path d="M545.218 277.016C508.444 263.109 470.526 250.704 432.516 240.139C432.371 319.641 491.01 372.277 563.485 357.715" stroke="#838383" stroke-width="1.5" stroke-miterlimit="10"/>
<path d="M607.824 347.108C546.203 359.503 470.335 318.897 470.456 251.291" stroke="#838383" stroke-width="1.5" stroke-miterlimit="10"/>
<path d="M608.433 347.002C556.894 357.364 508.002 320.158 508.101 263.623" stroke="#838383" stroke-width="1.5" stroke-miterlimit="10"/>
<path d="M497.286 351.358C525.363 344.727 554.142 341.539 582.989 341.863" stroke="#838383" stroke-width="1.5" stroke-miterlimit="10"/>
<path d="M450.302 309.19C485.56 309.086 520.77 311.791 555.599 317.279" stroke="#838383" stroke-width="1.5" stroke-miterlimit="10"/>
<path d="M555.599 317.279C579.114 321 602.405 326.02 625.365 332.316" stroke="#838383" stroke-width="1.5" stroke-miterlimit="10"/>
<path d="M564.002 69.8147C581.709 106.695 601.187 142.995 621.89 177.701" stroke="#838383" stroke-width="1.5" stroke-miterlimit="10"/>
<path d="M643.27 212.268C664.441 208.019 683.076 216.068 694.011 231.807" stroke="#838383" stroke-width="1.5" stroke-miterlimit="10"/>
<path d="M665.479 245.76C673.454 244.159 680.965 244.811 687.549 247.307" stroke="#838383" stroke-width="1.5" stroke-miterlimit="10"/>
<path d="M564.002 69.8147C581.709 106.695 601.187 142.995 621.89 177.701" stroke="#838383" stroke-width="1.5" stroke-miterlimit="10"/>
<path d="M450.563 163.886C485.786 186.232 521.172 209.333 555.743 232.55" stroke="#838383" stroke-width="1.5" stroke-miterlimit="10"/>
<path d="M497.731 102.775C525.666 134.566 554.436 166.237 583.246 196.92" stroke="#838383" stroke-width="1.5" stroke-miterlimit="10"/>
<path d="M660.488 181.391C647.76 147.12 637.634 111.937 630.198 76.1433C621.051 27.3992 618.756 16.7607 616 -32.8971" stroke="#838383" stroke-width="1.5" stroke-miterlimit="10"/>
<path d="M678.645 264.554C655.449 233.067 642.806 212.739 621.89 177.694C579.627 186.193 545.304 230.659 545.219 277.016C582.35 291.058 605.798 300.546 640.246 317.452" stroke="#838383" stroke-width="1.5" stroke-miterlimit="10"/>
<path d="M582.035 291.593C582.102 254.571 609.516 219.054 643.27 212.265" stroke="#838383" stroke-width="1.5" stroke-miterlimit="10"/>
<path d="M618.069 307.175C618.122 278.511 639.346 251.015 665.478 245.76" stroke="#838383" stroke-width="1.5" stroke-miterlimit="10"/>
<path d="M583.246 196.92C612.335 227.9 638.195 254.507 667.061 283.171" stroke="#838383" stroke-width="1.5" stroke-miterlimit="10"/>
<path d="M660.488 181.391C668.622 203.25 677.852 224.685 688.143 245.615" stroke="#838383" stroke-width="1.5" stroke-miterlimit="10"/>
<path d="M545.218 277.016C508.444 263.109 470.526 250.704 432.516 240.139C432.371 319.641 491.01 372.277 563.485 357.715" stroke="#838383" stroke-width="1.5" stroke-miterlimit="10"/>
<path d="M612.587 343.567C594.285 335.673 581.989 316.457 582.035 291.596" stroke="#838383" stroke-width="1.5" stroke-miterlimit="10"/>
<path d="M624.943 332.829C620.565 325.835 618.051 317.084 618.069 307.175" stroke="#838383" stroke-width="1.5" stroke-miterlimit="10"/>
<path d="M545.218 277.016C508.444 263.109 470.526 250.704 432.516 240.139C432.371 319.641 491.01 372.277 563.485 357.715" stroke="#838383" stroke-width="1.5" stroke-miterlimit="10"/>
<path d="M0.923243 209.081C31.3228 202.972 64.3785 199.077 99.1836 197.497C99.5731 -19.2379 260.053 -227.119 457.625 -266.844C655.198 -306.568 815.047 -163.08 814.657 53.6552C814.268 270.39 653.788 478.272 456.216 517.996C258.643 557.72 98.794 414.232 99.1836 197.497C64.3785 199.077 31.3228 202.972 0.923243 209.081ZM0.923243 209.081C0.438068 480.51 200.635 660.22 448.077 610.47C695.52 560.72 896.507 300.361 896.992 28.9184C897.477 -242.525 697.284 -422.216 449.841 -372.47C202.398 -322.724 1.41196 -62.3512 0.923243 209.081Z" stroke="#838383" stroke-width="1.5" stroke-miterlimit="10"/>
<path d="M0.922852 209.081C31.3224 202.972 64.3781 199.077 99.1832 197.497C99.5727 -19.2379 260.052 -227.119 457.625 -266.844C452.398 -303.586 449.78 -339.121 449.834 -372.47C202.398 -322.72 1.41157 -62.3512 0.922852 209.081Z" stroke="#838383" stroke-width="1.5" stroke-miterlimit="10"/>
<path d="M32.1758 203.709C32.6291 -49.3258 219.995 -292.051 450.669 -338.43" stroke="#838383" stroke-width="1.5" stroke-miterlimit="10"/>
<path d="M64.9944 199.842C65.4158 -34.9228 239.254 -260.118 453.269 -303.147" stroke="#838383" stroke-width="1.5" stroke-miterlimit="10"/>
<path d="M449.841 -372.47C449.781 -339.12 452.398 -303.586 457.632 -266.844C655.205 -306.568 815.054 -163.08 814.665 53.6552C838.899 43.3568 866.6 35.038 896.999 28.9255C897.481 -242.51 697.284 -422.216 449.841 -372.47Z" stroke="#838383" stroke-width="1.5" stroke-miterlimit="10"/>
<path d="M450.67 -338.43C681.344 -384.823 867.973 -217.278 867.52 35.7604" stroke="#838383" stroke-width="1.5" stroke-miterlimit="10"/>
<path d="M453.269 -303.147C667.288 -346.178 840.438 -190.745 840.017 44.0191" stroke="#838383" stroke-width="1.5" stroke-miterlimit="10"/>
<path d="M896.992 28.9184C866.592 35.0309 838.891 43.3497 814.657 53.6481C814.268 270.383 653.788 478.265 456.216 517.989C450.872 546.005 448.134 577.131 448.07 610.47C695.52 560.72 896.507 300.361 896.992 28.9184Z" stroke="#838383" stroke-width="1.5" stroke-miterlimit="10"/>
<path d="M867.519 35.7604C867.066 288.795 679.7 531.517 449.026 577.896" stroke="#838383" stroke-width="1.5" stroke-miterlimit="10"/>
<path d="M840.017 44.019C839.596 278.78 665.779 503.979 451.743 547.007" stroke="#838383" stroke-width="1.5" stroke-miterlimit="10"/>
<path d="M835.371 289.273C809.164 277.717 785.625 268.379 765.453 261.526" stroke="#838383" stroke-width="1.5" stroke-miterlimit="10"/>
<path d="M448.077 610.47C448.134 577.12 450.872 546.016 456.223 517.989C258.65 557.713 98.8011 414.225 99.1907 197.49C64.3785 199.077 31.3228 202.972 0.923243 209.081C0.438068 480.51 200.635 660.22 448.077 610.47Z" stroke="#838383" stroke-width="1.5" stroke-miterlimit="10"/>
<path d="M449.027 577.896C218.353 624.274 31.7233 456.747 32.1766 203.709" stroke="#838383" stroke-width="1.5" stroke-miterlimit="10"/>
<path d="M451.742 547.007C237.727 590.05 64.5725 434.606 64.9939 199.842" stroke="#838383" stroke-width="1.5" stroke-miterlimit="10"/>
<path d="M61.6479 444.851C88.3627 422.443 117.169 402.654 147.669 385.756" stroke="#838383" stroke-width="1.5" stroke-miterlimit="10"/>
<path d="M99.1833 197.497C133.096 195.967 169.073 196.615 206.134 199.441C206.414 33.6639 329.17 -125.353 480.297 -155.739C470.342 -193.66 462.717 -231.043 457.632 -266.844C260.053 -227.123 99.5729 -19.2273 99.1833 197.497Z" stroke="#838383" stroke-width="1.5" stroke-miterlimit="10"/>
<path d="M148.381 -10.3843C178.338 4.79777 210.423 21.8958 243.751 40.4316" stroke="#838383" stroke-width="1.5" stroke-miterlimit="10"/>
<path d="M457.625 -266.844C462.718 -231.043 470.342 -193.66 480.29 -155.738C631.413 -186.124 753.688 -76.3681 753.387 89.4095C770.418 75.7112 791.04 63.681 814.654 53.6411C815.047 -163.08 655.198 -306.568 457.625 -266.844Z" stroke="#838383" stroke-width="1.5" stroke-miterlimit="10"/>
<path d="M814.657 53.6481C791.046 63.681 770.425 75.7112 753.39 89.4165C753.093 255.191 630.34 414.211 479.213 444.593C469.152 465.994 461.418 490.699 456.194 517.996C653.788 478.265 814.267 270.373 814.657 53.6481Z" stroke="#838383" stroke-width="1.5" stroke-miterlimit="10"/>
<path d="M765.46 261.526C745.805 254.847 729.075 250.434 715.763 248.423" stroke="#838383" stroke-width="1.5" stroke-miterlimit="10"/>
<path d="M636.867 428.111C627.55 408.038 620.995 390.445 617.389 375.84" stroke="#838383" stroke-width="1.5" stroke-miterlimit="10"/>
<path d="M456.216 517.989C461.421 490.692 469.156 465.987 479.235 444.586C328.112 474.971 205.837 365.215 206.138 199.441C169.091 196.608 133.114 195.967 99.187 197.497C98.7939 414.225 258.643 557.713 456.216 517.989Z" stroke="#838383" stroke-width="1.5" stroke-miterlimit="10"/>
<path d="M147.669 385.738C178.202 368.839 210.172 354.681 243.206 343.429" stroke="#838383" stroke-width="1.5" stroke-miterlimit="10"/>
<path d="M0.923243 209.081C31.3228 202.972 64.3785 199.077 99.1836 197.497C99.5731 -19.2379 260.053 -227.119 457.625 -266.844C655.198 -306.568 815.047 -163.08 814.657 53.6552C814.268 270.39 653.788 478.272 456.216 517.996C258.643 557.72 98.794 414.232 99.1836 197.497C64.3785 199.077 31.3228 202.972 0.923243 209.081ZM0.923243 209.081C0.438068 480.51 200.635 660.22 448.077 610.47C695.52 560.72 896.507 300.361 896.992 28.9184C897.477 -242.525 697.284 -422.216 449.841 -372.47C202.398 -322.724 1.41196 -62.3512 0.923243 209.081Z" stroke="#838383" stroke-width="1.5" stroke-miterlimit="10"/>
<path d="M99.1836 197.497C133.096 195.967 169.074 196.615 206.135 199.441C206.414 33.6639 329.171 -125.353 480.297 -155.738C631.424 -186.124 753.695 -76.3681 753.394 89.4094C753.093 255.187 630.344 414.204 479.217 444.586C328.091 474.968 205.819 365.215 206.12 199.441C169.074 196.608 133.096 195.967 99.1694 197.497C98.7799 414.232 258.629 557.713 456.201 517.996C653.774 478.279 814.239 270.38 814.643 53.6552C815.047 -163.069 655.183 -306.561 457.611 -266.844C260.039 -227.126 99.5731 -19.2272 99.1836 197.497Z" stroke="#838383" stroke-width="1.5" stroke-miterlimit="10"/>
<path d="M0.922852 209.081C31.3224 202.972 64.3781 199.077 99.1832 197.497C99.5727 -19.2379 260.052 -227.119 457.625 -266.844C452.398 -303.586 449.78 -339.121 449.834 -372.47C202.398 -322.72 1.41157 -62.3512 0.922852 209.081Z" stroke="#838383" stroke-width="1.5" stroke-miterlimit="10"/>
<path d="M449.841 -372.47C449.781 -339.12 452.398 -303.586 457.632 -266.844C655.205 -306.568 815.054 -163.08 814.665 53.6552C838.899 43.3568 866.6 35.038 896.999 28.9255C897.481 -242.51 697.284 -422.216 449.841 -372.47Z" stroke="#838383" stroke-width="1.5" stroke-miterlimit="10"/>
<path d="M448.077 610.47C448.134 577.12 450.872 546.016 456.223 517.989C258.65 557.713 98.8011 414.225 99.1907 197.49C64.3785 199.077 31.3228 202.972 0.923243 209.081C0.438068 480.51 200.635 660.22 448.077 610.47Z" stroke="#838383" stroke-width="1.5" stroke-miterlimit="10"/>
<path d="M61.6479 444.851C88.3627 422.443 117.169 402.654 147.669 385.756" stroke="#838383" stroke-width="1.5" stroke-miterlimit="10"/>
<path d="M99.1833 197.497C133.096 195.967 169.073 196.615 206.134 199.441C206.414 33.6639 329.17 -125.353 480.297 -155.739C470.342 -193.66 462.717 -231.043 457.632 -266.844C260.053 -227.123 99.5729 -19.2273 99.1833 197.497Z" stroke="#838383" stroke-width="1.5" stroke-miterlimit="10"/>
<path d="M133.748 196.693C134.102 -2.72064 281.78 -194.004 463.554 -230.555" stroke="#838383" stroke-width="1.5" stroke-miterlimit="10"/>
<path d="M169.466 197.341C169.796 14.9474 304.866 -160.024 471.125 -193.444" stroke="#838383" stroke-width="1.5" stroke-miterlimit="10"/>
<path d="M148.381 -10.3843C178.338 4.79777 210.423 21.8958 243.751 40.4316" stroke="#838383" stroke-width="1.5" stroke-miterlimit="10"/>
<path d="M457.625 -266.844C462.718 -231.043 470.342 -193.66 480.29 -155.738C631.413 -186.124 753.688 -76.3681 753.387 89.4095C770.418 75.7112 791.04 63.681 814.654 53.6411C815.047 -163.08 655.198 -306.568 457.625 -266.844Z" stroke="#838383" stroke-width="1.5" stroke-miterlimit="10"/>
<path d="M463.553 -230.555C645.345 -267.106 792.424 -135.078 792.066 64.3326" stroke="#838383" stroke-width="1.5" stroke-miterlimit="10"/>
<path d="M471.125 -193.444C637.402 -226.872 771.926 -106.116 771.6 76.2778" stroke="#838383" stroke-width="1.5" stroke-miterlimit="10"/>
<path d="M814.657 53.6481C791.046 63.681 770.425 75.7112 753.39 89.4165C753.093 255.191 630.34 414.211 479.213 444.593C469.152 465.994 461.418 490.699 456.194 517.996C653.788 478.265 814.267 270.373 814.657 53.6481Z" stroke="#838383" stroke-width="1.5" stroke-miterlimit="10"/>
<path d="M792.067 64.3326C791.713 263.747 644.035 455.033 462.258 491.58" stroke="#838383" stroke-width="1.5" stroke-miterlimit="10"/>
<path d="M771.6 76.2778C771.271 258.661 636.215 433.632 469.938 467.063" stroke="#838383" stroke-width="1.5" stroke-miterlimit="10"/>
<path d="M765.46 261.526C745.805 254.847 729.075 250.434 715.763 248.423" stroke="#838383" stroke-width="1.5" stroke-miterlimit="10"/>
<path d="M636.867 428.111C627.55 408.038 620.995 390.445 617.389 375.84" stroke="#838383" stroke-width="1.5" stroke-miterlimit="10"/>
<path d="M456.216 517.989C461.421 490.692 469.156 465.987 479.235 444.586C328.112 474.971 205.837 365.215 206.138 199.441C169.091 196.608 133.114 195.967 99.187 197.497C98.7939 414.225 258.643 557.713 456.216 517.989Z" stroke="#838383" stroke-width="1.5" stroke-miterlimit="10"/>
<path d="M462.257 491.598C280.469 528.149 133.39 396.125 133.748 196.711" stroke="#838383" stroke-width="1.5" stroke-miterlimit="10"/>
<path d="M469.939 467.063C303.666 500.494 169.141 379.735 169.467 197.341" stroke="#838383" stroke-width="1.5" stroke-miterlimit="10"/>
<path d="M147.669 385.738C178.202 368.839 210.172 354.681 243.206 343.429" stroke="#838383" stroke-width="1.5" stroke-miterlimit="10"/>
<path d="M206.12 199.431C242.494 202.2 280.252 207.087 318.358 213.951C318.574 94.2789 407.184 -20.5128 516.277 -42.4484C502.172 -80.4054 490.071 -118.529 480.297 -155.774C329.17 -125.353 206.414 33.6639 206.12 199.431Z" stroke="#838383" stroke-width="1.5" stroke-miterlimit="10"/>
<path d="M243.751 40.4209C276.474 58.6203 310.712 78.385 345.524 99.1696" stroke="#838383" stroke-width="1.5" stroke-miterlimit="10"/>
<path d="M342.111 -86.9889C365.289 -56.4299 390.327 -24.7413 416.527 7.21299" stroke="#838383" stroke-width="1.5" stroke-miterlimit="10"/>
<path d="M480.298 -155.738C490.068 -118.507 502.173 -80.3841 516.278 -42.4129C625.354 -64.3485 713.635 14.8838 713.419 134.552C723.218 118.053 736.668 102.87 753.394 89.4236C753.692 -76.3681 631.421 -186.124 480.298 -155.738Z" stroke="#838383" stroke-width="1.5" stroke-miterlimit="10"/>
<path d="M716.304 -54.5778C703.256 -27.3883 693.308 1.18303 686.648 30.597C679.87 54.9868 678.645 89.4094 677.182 118.322" stroke="#838383" stroke-width="1.5" stroke-miterlimit="10"/>
<path d="M753.394 89.4094C736.668 102.867 723.218 118.038 713.419 134.538C713.206 254.206 624.593 368.998 515.499 390.937C501.302 405.527 489.094 423.578 479.217 444.589C630.344 414.204 753.097 255.183 753.394 89.4094Z" stroke="#838383" stroke-width="1.5" stroke-miterlimit="10"/>
<path d="M715.763 248.416C702.688 246.436 692.743 246.741 686.255 249.322" stroke="#838383" stroke-width="1.5" stroke-miterlimit="10"/>
<path d="M617.399 375.84C613.858 361.493 613.15 349.878 615.25 341.304" stroke="#838383" stroke-width="1.5" stroke-miterlimit="10"/>
<path d="M479.217 444.586C489.094 423.575 501.301 405.524 515.499 390.933C406.423 412.865 318.142 333.637 318.358 213.968C280.253 207.098 242.494 202.211 206.12 199.449C205.823 365.215 328.094 474.971 479.217 444.586Z" stroke="#838383" stroke-width="1.5" stroke-miterlimit="10"/>
<path d="M341.183 431.373C364.069 411.898 389.125 395.128 415.854 381.393" stroke="#838383" stroke-width="1.5" stroke-miterlimit="10"/>
<path d="M243.206 343.429C276.417 332.119 310.509 323.582 345.132 317.906" stroke="#838383" stroke-width="1.5" stroke-miterlimit="10"/>
<path d="M608.238 347.108C602.175 347.299 597.968 346.609 592.465 345.224C564.665 338.23 545.137 312.122 545.201 277.062C508.423 263.155 470.512 250.746 432.509 240.189" stroke="#838383" stroke-width="1.5" stroke-miterlimit="10"/>
<path d="M713.525 134.573C713.525 134.573 696.469 156.916 696.069 226.533" stroke="#838383" stroke-width="1.5" stroke-miterlimit="10"/>
<path d="M734.621 91.637C741.208 238.131 637.016 383.974 501.903 417.388" stroke="#838383" stroke-width="1.5" stroke-miterlimit="10"/>
<path d="M478.041 -113.114C342.925 -79.7006 238.733 66.1423 245.32 212.637" stroke="#838383" stroke-width="1.5" stroke-miterlimit="10"/>
<path d="M734.621 91.637C728.037 -54.8434 613.164 -146.527 478.041 -113.114" stroke="#838383" stroke-width="1.5" stroke-miterlimit="10"/>
<path d="M245.331 212.637C251.918 359.131 366.802 450.801 501.903 417.388" stroke="#838383" stroke-width="1.5" stroke-miterlimit="10"/>
<path d="M538.809 13.885C447.6 32.3004 373.549 128.592 373.403 228.938" stroke="#838383" stroke-width="1.5" stroke-miterlimit="10"/>
<path d="M703.531 159.469C703.676 59.1232 630.014 -4.54098 538.808 13.885" stroke="#838383" stroke-width="1.5" stroke-miterlimit="10"/>
<path d="M373.403 228.938C373.257 329.284 460.876 393.653 552.099 375.227" stroke="#838383" stroke-width="1.5" stroke-miterlimit="10"/>
<path d="M722.8 110.222C728.753 242.672 634.548 374.54 512.386 404.748" stroke="#838383" stroke-width="1.5" stroke-miterlimit="10"/>
<path d="M490.819 -74.9019C368.657 -44.6901 274.452 87.1677 280.405 219.617" stroke="#838383" stroke-width="1.5" stroke-miterlimit="10"/>
<path d="M722.8 110.222C716.843 -22.2269 612.984 -105.096 490.819 -74.902" stroke="#838383" stroke-width="1.5" stroke-miterlimit="10"/>
<path d="M280.405 219.617C286.362 352.066 390.214 434.96 512.393 404.748" stroke="#838383" stroke-width="1.5" stroke-miterlimit="10"/>
<path d="M583.93 361.111C568.994 369.389 553.04 375.679 536.475 379.824" stroke="#838383" stroke-width="1.5" stroke-miterlimit="10"/>
<path d="M518.828 -12.7819C418.832 11.9444 341.725 119.88 346.598 228.293" stroke="#838383" stroke-width="1.5" stroke-miterlimit="10"/>
<path d="M518.828 -12.7819C618.82 -37.5116 703.835 30.3314 708.708 138.745C708.708 138.745 708.071 186.501 700.294 214.177" stroke="#838383" stroke-width="1.5" stroke-miterlimit="10"/>
<path d="M346.598 228.293C351.475 336.711 436.487 404.55 536.479 379.824" stroke="#838383" stroke-width="1.5" stroke-miterlimit="10"/>
<path d="M546.961 44.8831C464.538 65.2675 400.976 154.235 404.996 243.599" stroke="#838383" stroke-width="1.5" stroke-miterlimit="10"/>
<path d="M546.961 44.8831C620.109 26.7935 683.536 68.8055 699.688 140.958C702.717 154.481 703.708 168.38 702.628 182.195C701.523 196.321 699.345 218.477 696.069 226.533" stroke="#838383" stroke-width="1.5" stroke-miterlimit="10"/>
<path d="M404.996 243.599C409.012 332.964 479.086 388.886 561.527 368.502C561.527 368.502 582.343 365.566 607.841 347.122" stroke="#838383" stroke-width="1.5" stroke-miterlimit="10"/>
<path d="M621.89 177.697C666.158 170.076 695.828 196.293 694.011 231.806" stroke="#838383" stroke-width="1.5" stroke-miterlimit="10"/>
</svg>
