<svg width="175" height="26" viewBox="0 0 175 26" fill="none" xmlns="http://www.w3.org/2000/svg">
<g clip-path="url(#clip0_243_3869)">
<path d="M54.0532 0.192988L24.5427 26.0047L24.3658 25.9106C25.2234 23.2898 26.0819 20.669 26.9837 17.9088C26.6439 17.9568 26.3822 17.9672 26.1365 18.034C21.0907 19.4053 16.0461 20.7822 11.0029 22.1648C7.62236 23.0968 4.24938 24.0579 0.872651 25.004C0.591757 25.0993 0.29058 25.1181 0 25.0586L23.2643 10.4503L23.4037 10.5595C23.0271 11.9621 22.6506 13.3657 22.2232 14.9548L53.959 0L54.0532 0.192988Z" fill="white"/>
<path d="M140.519 9.39499V4.83682C141.44 4.61277 142.308 4.76809 143.146 4.72385C143.347 5.44589 143.416 15.7747 143.235 17.5144C142.369 17.6085 141.488 17.5803 140.571 17.5304C140.543 17.1181 140.52 16.7773 140.492 16.3621C140.353 16.4157 140.218 16.4786 140.087 16.5504C137.767 18.0463 135.311 18.0971 132.809 17.151C131.566 16.6803 130.788 15.7069 130.456 14.4041C130.198 13.3985 130.194 12.3447 130.443 11.337C130.828 9.76965 131.842 8.75297 133.362 8.3124C135.827 7.59507 138.192 7.77299 140.519 9.39499ZM136.736 15.5394C137.513 15.3888 138.299 15.3144 139.033 15.0781C140.079 14.7402 140.522 13.9936 140.522 12.8433C140.522 11.6929 140.074 10.9436 139.047 10.5839C137.587 10.0695 135.995 10.0695 134.536 10.5839C133.52 10.9323 133.029 11.7211 133.029 12.832C133.029 13.9428 133.507 14.7402 134.529 15.0772C135.23 15.3078 135.983 15.3878 136.736 15.5394Z" fill="white"/>
<path d="M160.323 13.5069H150.35C150.476 14.3542 150.932 14.8475 151.574 15.0442C153.58 15.6608 155.567 15.8444 157.351 14.3852C157.466 14.2911 157.612 14.1762 157.746 14.1734C158.547 14.1537 159.347 14.1631 160.231 14.1631C159.924 15.4537 159.181 16.2416 158.16 16.8074C157.207 17.3327 156.164 17.5313 155.1 17.6405C153.556 17.7987 152.031 17.7121 150.559 17.1849C148.511 16.4535 147.471 14.9793 147.469 12.8546C147.469 10.6621 148.505 9.1474 150.593 8.45078C152.716 7.72598 155.017 7.70617 157.153 8.39429C159.361 9.09092 160.631 11.1563 160.323 13.5069ZM150.466 11.6552C152.212 11.835 156.692 11.7654 157.326 11.5611C156.949 10.7882 156.572 10.4418 155.767 10.2356C154.549 9.91865 153.271 9.92189 152.056 10.245C151.35 10.4314 150.741 10.792 150.466 11.6552Z" fill="white"/>
<path d="M78.0584 4.75491H80.6783C80.7103 6.34773 80.6783 7.92454 80.7009 9.6275C81.0445 9.43923 81.2808 9.31025 81.5142 9.17752C83.5278 8.02339 85.6761 7.65437 87.9495 8.11941C89.7701 8.49596 90.9205 9.69904 91.0156 11.5517C91.1163 13.5116 91.0382 15.4801 91.0382 17.4918H88.3882C88.3656 17.2282 88.3279 16.9882 88.3261 16.749C88.3195 15.7455 88.3261 14.742 88.3213 13.7366C88.3213 13.4542 88.3213 13.1718 88.2969 12.8894C88.1265 11.0866 87.3771 10.3928 85.5763 10.3477C83.9759 10.3081 82.5592 10.8061 81.2732 11.7315C80.8647 12.0252 80.6585 12.3773 80.6783 12.9186C80.7206 14.1085 80.6915 15.3012 80.6915 16.4958V17.4796H78.1196C77.9417 16.8178 77.8795 6.19805 78.0584 4.75491Z" fill="white"/>
<path d="M115.657 17.4909H113.047V8.15895H115.646C115.678 8.59952 115.712 9.0495 115.751 9.59362C116.044 9.43735 116.283 9.31778 116.514 9.18505C118.491 8.04598 120.605 7.66567 122.848 8.0987C124.781 8.47525 125.938 9.67175 126.036 11.6166C126.13 13.5465 126.057 15.4857 126.057 17.4805H123.422C123.383 17.2512 123.357 17.0199 123.343 16.7876C123.334 15.658 123.353 14.533 123.334 13.4053C123.297 11.0688 122.425 10.2554 120.077 10.359C118.692 10.4201 117.458 10.9097 116.33 11.7014C115.886 12.012 115.671 12.3876 115.695 12.9609C115.737 14.1499 115.71 15.3407 115.705 16.5306C115.701 16.8357 115.674 17.1407 115.657 17.4909Z" fill="white"/>
<path d="M108.48 17.52H105.877C105.85 17.0493 105.824 16.6182 105.792 16.076C105.51 16.2275 105.271 16.3433 105.039 16.476C103.005 17.6631 100.825 18.0246 98.5221 17.5323C96.8511 17.1764 95.6782 16.0637 95.568 14.4172C95.4306 12.366 95.5351 10.2978 95.5351 8.17966H98.1512C98.1757 8.44889 98.2209 8.71624 98.2227 8.98453C98.2331 10.1142 98.2011 11.2438 98.2378 12.3735C98.3103 14.6328 99.1632 15.4076 101.408 15.3181C102.795 15.2617 104.035 14.7891 105.174 14.0002C105.65 13.6707 105.867 13.2706 105.85 12.6635C105.807 11.1949 105.836 9.7254 105.836 8.18907H108.394C108.591 8.8358 108.665 15.7088 108.48 17.52Z" fill="white"/>
<path d="M65.618 8.76895H60.2023V6.39667H73.8288V8.74259C72.0674 8.81979 70.2976 8.72094 68.4629 8.80096V17.488H65.619L65.618 8.76895Z" fill="white"/>
<path d="M164.711 8.09965H167.322C167.354 8.36794 167.383 8.57034 167.401 8.78026C167.419 8.99019 167.427 9.20764 167.447 9.54936C169.698 7.86335 172.111 7.58471 174.696 8.26345V10.5152C173.365 10.2714 172.099 10.1123 170.814 10.3646C169.829 10.5548 168.885 10.9144 168.024 11.4274C167.574 11.6948 167.377 12.0148 167.392 12.5571C167.431 13.9692 167.407 15.3812 167.402 16.7867C167.402 16.9976 167.372 17.2094 167.352 17.472H164.792C164.58 16.8488 164.504 9.8299 164.711 8.09965Z" fill="white"/>
</g>
<defs>
<clipPath id="clip0_243_3869">
<rect width="174.694" height="26" fill="white"/>
</clipPath>
</defs>
</svg>
